<svg xmlns="http://www.w3.org/2000/svg" viewBox="0 0 700 500"><title>Vehicle Monitoring</title><path d="M32.8,369.2s0-296.6,324.5-324.5c0,0,298,16.6,303.5,324.5Z" fill="#b6ecff"></path><path d="M693.4,381.8H6.6A6.59,6.59,0,0,1,0,375.2H0a6.59,6.59,0,0,1,6.6-6.6H693.5a6.59,6.59,0,0,1,6.6,6.6h0A6.75,6.75,0,0,1,693.4,381.8Z" fill="#b6ecff"></path><path d="M235.8,418c-.5-4.8-.1-9.6-1.1-14.3,0-.5-.1-1.1-.1-1.6-1.7-2.6-1.1-5.7-1.4-8.6q-1-10-1.5-20.1c-.2-3.5.3-7.1,3.2-9.8a8.12,8.12,0,0,1,6.6-2.6c14.1,1.7,28.3,1.1,42.5,1.3,2.9.1,4.2-.8,4.5-3.7.7-8.4,5.7-15,10.1-21.7,1-1.5,2.4-2.8,4.3-1.6s.8,2.8.2,4.3c-2,4.7-5.2,8.9-7.4,13.5a23.92,23.92,0,0,0-2.2,5.8c-.7,3.3-.2,4.1,3.1,4.1,12.1-.1,24.2.7,36.3.9,18.3.2,36.6.9,54.9,1.5,14.6.5,29.3,1.2,43.9,1.4,6.3.1,12.7.8,19,.8,3.6,0,6,1.8,7.2,5.8,7.2-9.3,15.7-16.7,24-23.4-3.2,2-7.1,3.8-10.6,6.4-3.6,2.8-7,5.8-10.5,8.6-1.3,1.1-2.7,1.8-4.3.7-1.8-1.2-2.1-3-1.6-4.9a65.63,65.63,0,0,1,3.7-9.6,49.67,49.67,0,0,1-5.9,7c-1.3,1.3-2.9,2-4.7.9s-1.3-2.7-.9-4.3c.5-1.9,1.1-3.8,1.6-5.7s1.7-3.8.4-5.9c-.3-.5,0-1.2.2-1.8,1.5-4,3.1-8,4.9-11.9.6-1.3,1.5-2.9,3.3-2.1s1.3,2.5.8,3.8a114.24,114.24,0,0,0-5.3,18.4,19.45,19.45,0,0,1,4.1-4.9c1.7-1.4,3.6-2.2,5.7-.8s2.2,3.3,1.6,5.5c-1,3.3-2.5,6.3-3.8,9.6,6-5.7,13.1-9.8,20.5-13.4a23.88,23.88,0,0,1,3.7-1.5c1.7-.5,3.2-.4,4.3,1.1s.4,2.9-.5,4a59.11,59.11,0,0,1-8.5,8.1,256.48,256.48,0,0,0-21.7,21.3c-1.6,1.7-1.3,3.8-1.5,6.2,4.7-1.6,8.8-3.8,13-5.5a7.63,7.63,0,0,1,6.6,0c17.1,7.2,28,20.1,33.5,37.5.9,2.9,2.2,3.7,5,2.8a12.45,12.45,0,0,0,7.2-5.9c4.1-6.7,6.4-14.3,9-21.6,1.5-4.2-1.1-8.6-2.9-12.6-3.6-7.8-7.9-15.2-10.9-23.2-3.6-9.5-5.7-19.5-8.8-29.1-1.7-5.3-1.8-5.2-7.4-5.3-7.4-.1-14.9.5-22.3-.7-3.9-.6-6-2.5-6.1-6.5,0-9.9-.6-19.8.4-29.7a96.92,96.92,0,0,0,.1-13.2c0-2-1.2-3.4-2.7-4.6a29.56,29.56,0,0,1-6.9-7.6c-4.3-6.9-10.7-10.9-18.4-13-1.7-.5-3.7-.6-5-2.1a1.53,1.53,0,0,1,.4-1.7c3.2-1.6,5.8.5,8.7,1.1,8.4,2.2,14.4,7.5,19,14.6.1.1.1.2.2.3,1.6,1.8,2.9,5,5.2,4.3,1.6-.4.5-3.9.7-6.1.3-4.9.4-9.8.6-14.6.1-3.1,1.5-4.5,4.8-4.5,38.3.3,76.5.5,114.8.9,10.2.1,8.4-.8,8.3,8.5-.3,19.2-1.1,38.3-1.6,57.5-.1,4.4.1,8.8.3,13.2.1,1.9-.6,2.6-2.5,2.6-3.7,0-7.3.2-11,.3a3.59,3.59,0,0,1-1,.7c-2,.5-4,.2-6,.3a10.82,10.82,0,0,1-1.8,0h-15a28.05,28.05,0,0,1-2.9,0c-14.4.1-28.9,0-43.3.1-4.8,0-5,.2-3.5,4.7,1.1,3.2,2,6.6,2.8,9.9a138.86,138.86,0,0,0,14,35.7,44.29,44.29,0,0,1,3.8,8.3c1.7,5.2,2.4,10.4-.1,15.7-1.6,3.3-2.4,6.9-3.8,10.3-.6,1.5-1.2,3-2.6,3.9-1.6,2.1-2.2,4.8-4.3,6.5a53.71,53.71,0,0,1-5.8,4.9c-4.9,3.5-11,3.7-16.5,5.4-14.6,4.4-29.6,5.1-44.6,3.5-3.8-.4-4.4,1-4.5,4.3-.3,11.1-.9,22.2-2,33.3-.1.2-.3.4-.3.6-.2,1.5.6,4.1-2.1,3.7-2-.2-1.6-2.5-1.5-4,.3-3.4,1-6.8.5-10.2,0-12.8,1.3-25.6,2-38.4.5-9.8,1.3-19.5,1.6-29.2.1-4.8,1-9.5.8-14.3-.2-4.1-1.1-5.4-5.3-5.3-8,.1-15.8-1.1-23.8-.9-17.5.5-34.9-.6-52.4-.9-18.8-.4-37.6-.5-56.4-1.3-16.7-.7-33.4-1.1-50.1-1.5-6.7-.2-13.4-.7-20.1-.6-5.6.1-6.2.7-6,6.1.5,11.7,1.7,23.4,2.6,35.1,1,13.1,2.4,26.3,3.3,39.4-.7,5.1,0,10.3.9,15.3.7,4.4-.9,6.6-4.2,8.8-1.2-2.5.3-5.2-1-7.5-1.6-10.5-2-21.1-2.7-31.6C236.6,427,236.6,422.4,235.8,418Z" fill="#1d2f37"></path><path d="M526.4,163.5c-13.4,0-26.8,0-40.3-.1-4.8,0-9.5-.5-14.3-.4-2.4,0-3.1-.7-3.1-3.1.1-12.8.1-25.6.1-38.4,0-1.6-.1-3.2-.1-4.8.3-6,.8-11.9,1-17.9.1-2.8,1.1-4,4.2-4,19.7.1,39.4,0,59,.7,5.1.2,6.1.8,5.9,5.9-.1,3.8,1.1,5.1,4.7,4.6a25.28,25.28,0,0,1,4.7.3c-2.9,2.3-6.3,1.1-9.5.9-1.6-.1-3.1-.4-4.7-.4-16.2,0,21,.5,4.7.4-.8,21.6.3-.3.3,4,0,5.3-1.2,17.8-1.1,23.1,0,3.9-57-3.4-53-3.2,16.6,1,33.2.6,49.8.7,1.7,0,3.5-.4,4.8,1.2-.9,4.8-.2,9.7-.4,14.6-1.8,2.2-4.4,1.8-6.8,1.8-4.5.1-4.5.1-4.6,4.5v6.2C527.7,161.3,527.8,162.8,526.4,163.5Z" fill="#5848f7"></path><path d="M239.6,463c1.9,1.9.2,4.4,1.1,6.7.9-.8-.2-3,2.4-2.7,1.6.2.9-2.1.7-3.3-.7-5.6-1.6-11.3-1.2-17,2,.7,1.7,2.5,1.9,4,1.2,10.8,2.2,21.6,2.9,32.5.2,4.1.3,4.2,4.5,4.4,20.6.9,41.3.8,61.9,1.5,17,.6,33.9.7,50.9,1.5,16.6.8,33.2.4,49.8,1.5,9.4.6,18.8.4,28.2,1.4a8.76,8.76,0,0,1,3.2.7,1,1,0,0,0,1.1-.6c-.3.1-.4.6-.9.5-.2-.1-.4-.1-.6-.3-1.2-2.2-1-4.5-.8-6.8.8-8.2,1-16.5,2.1-24.7.2-1.4,0-3,1.8-3.6.6,3.6-.5,7.2-.6,10.8,0,.9-.8,2.5.8,2.6,1.4.1,1.2-1.5,1.4-2.5a3.75,3.75,0,0,1,.7-1.2c-.6,7.5-.6,15.1-1.8,22.6a7.25,7.25,0,0,0-.2,2.5c1.5,4.9-2.1,4-4.7,4.1-36.8.6-73.6-.9-110.3-1.6-26.8-.5-53.5-1.2-80.3-1.8-10.1-.2-10.3-.2-11.8-10.2C240.9,476.9,239.4,470.1,239.6,463Z" fill="#27323c"></path><path d="M70.5,186.6c-10.6,0-21.2-.1-31.9,0-2.2,0-3-.3-3.1-2.9-.8-16.2.1-32.5.4-48.7,0-2.1.8-2.4,2.6-2.4,21.3.3,42.5.6,63.8.8,2.4,0,3.5.8,3.6,3.4.8,16,.4,32,.7,48,.1,3.1-2.1,2.5-3.7,2.5-10.7.1-21.5,0-32.2,0C70.5,187.2,70.5,186.9,70.5,186.6Z" fill="#28333d"></path><path d="M209.8,151.9c8,.5,16.1-.3,24.2.4,2.7.2,3.4,1.4,3.4,3.6V204c0,2.7-1.8,2.1-3.3,2.1-15.3-.2-30.6-.3-45.9-.5-3.5,0-7.1-.3-10.6-.2-1.9.1-2.6-.3-2.5-2.3.2-3.5,0-7.1-.1-10.6.3-12.5.7-25.1.8-37.6,0-2.6,1.3-2.4,2.9-2.4,7.9-.1,15.8-.1,23.8-.2C204.9,152.1,207.3,152,209.8,151.9Z" fill="#343d43"></path><path d="M256.6,119.7c-2.7.1-3.7-.8-3.7-3.8.3-14,.2-28,.3-42.1,0-1.9-.1-3.4,2.5-3.3,16.7.1,33.4-.3,50.1.7.5.6,2.8.6.8,2.2-1.9.8-3.8.6-5.8.6H261.3c-4.6,0-4.8.3-4.8,4.7v33.7c0,4.2.3,4.6,4.6,4.6,9.4.1,18.8,0,28.2.1,1.8,0,4-.6,4.9,2-1.3,1-2.8.7-4.2.7C278.8,119.7,267.7,119.6,256.6,119.7Z" fill="#414b54"></path><path d="M307.3,72.6l-1.5-1.5c5.2-.2,5.2-.2,5.2,4.7v33.5c-.5,3.1.2,6.4-.7,9.5-2.6,1.6-9.9,1.6-11.9,0,1.6-1.5,3.7-1.1,5.6-1.1,2.4,0,3.7-.8,3.6-3.4-.5-12.3,1.1-24.5.8-36.8A38.77,38.77,0,0,0,307.3,72.6Z" fill="#4a5259"></path><path d="M298.5,118.9a19,19,0,0,0,11.8,0c.3,2.1-1.2,1.6-2.3,1.6-12.6,0-25.1-.1-37.7-.1-1.3,0-2.7.1-4,.1-3.2-.6-6.5.2-9.6-.8,1.2-1.3,2.8-.7,4.1-.7,11.2-.1,22.3-.1,33.5-.2A3,3,0,0,1,298.5,118.9Z" fill="#2a333a"></path><path d="M440.8,244.1c10.9,2.2,19.9,7.1,25.6,17.2a13.54,13.54,0,0,0,4.9,4.9c2.6,1.4,3.4,3.4,3.3,6.3-.4,11-.5,22-.7,33-.1,3.3-.1,6.6.1,9.9.2,2.6,1.6,4.3,4.6,4.6,8.7,1,17.3.5,26,.6,2.3,0,3.3.6,4.1,3,4.2,12.5,6.3,25.6,11.9,37.6,2.7,5.9,5.6,11.6,8.6,17.4a47.68,47.68,0,0,1,3.1,8.2,11.07,11.07,0,0,1-1,8.3c-2.7,6-4.8,12.2-7.6,18.2-2.5,5.3-7,7.2-12.2,8-2,.3-1.6-1.3-1.9-2.4-4.5-16.1-13.8-28.4-28.5-36.5-2.2-1.2-4.7-2.1-6.9-3.3a2.09,2.09,0,0,0-2.3.2c-4.5,2.4-9.6,3.7-14,6.4-1.6,1-2.5.8-2.3-1.4a43.79,43.79,0,0,0,.4-5.1c-.2-2.3,1.9-1.1,2.7-2.1,8-10.7,18.7-18.6,28.2-27.7,1-.9,3-1.9,1.7-3.8s-3-1.1-4.6-.3c-8.2,3.6-15.9,7.9-22.5,14.2-.9.8-1.5,2-3.3,2.2.8-3.9,3.2-6.9,4.3-10.5.3-1.2.7-2.3,1.1-3.5.6-1.7-.2-2.7-1.6-3.6a2.64,2.64,0,0,0-3.6.5c-1.6,1.6-3.1,3.4-4.7,5.1-.8.8-1,2.2-2.6,2.6,1.8-7.5,3.4-14.8,6.2-21.9.3-.9,1.6-2.1,0-2.8-1.4-.6-1.8.9-2.2,1.8-1.8,4.3-5.2,8.7-4.9,12.8.3,5.2-2,9.3-2.6,13.9a2,2,0,0,0,3.6,1.6c1.9-1.9,3.6-4,5.4-6,1-1.2,2.1-2.4,3.4-3.9.2,2.7-1.2,4.5-1.9,6.4-.7,2.1-1.7,4.1-2.3,6.2-.5,1.6-.8,3.5.9,4.7,1.9,1.3,2.9-.5,4-1.5a94,94,0,0,1,21.7-15.4c.8-.4,1.5-1.4,3-.7-9.8,9.2-20.7,17-28.2,28-1.2-.3-.9-1.1-.9-1.8.3-3.4-1.5-5-4.7-5.2-6.2-.3-12.5-.6-18.7-.8-29.6-.9-59.1-1.7-88.7-2.5-16.4-.5-32.7-1.1-49.1-1.3-3.7-.1-4-1.5-3.3-4.4,1.2-5.4,4.3-9.8,6.9-14.5,1.2-2.2,2.5-4.5,3.7-6.8.4-.8,1.2-1.7,0-2.5s-1.9-.1-2.5.8c-4.9,7.6-10.6,14.8-10.8,24.4,0,2.3-.7,2.7-3,2.7-12.5-.4-24.9-.6-37.4-.9a28.62,28.62,0,0,1-6.5-.6c-4.6-1-8.4,2-9.2,6.7-.8,5-.1,10,.3,15,.5,6.1,1.1,12.2,1.2,18.3-1.1-.8-2.2-1.5-3.3-2.3-6-8.5-9.5-17.5-5.6-28,3.5-9.4,6.1-19.1,9-28.7a9.88,9.88,0,0,1,1.5-3.3c3.9-5.4,6.8-11.3,10.4-16.8a45.77,45.77,0,0,0,6.8-14.9,33.08,33.08,0,0,1,11.4-18.7c9.1-7.6,15.3-17.5,20.1-28.1s13.4-16,24-19.3a3.68,3.68,0,0,1,4.5,1.5c4.9,6.9,11.9,10.9,19.7,14,6.3,2.5,12.9,4.5,19.1,7.2,5.7,2.4,6.1,3.3,5.2,9.6-.8,5.7-1.7,11.3-2.4,17.1-1.2,11,0,21.9,1.8,32.8a2.09,2.09,0,0,0,1,1.7c1-1.2.7-2.7.5-4-.9-5.3-1.2-10.7-1.9-16-.8-6.4.5-12.7.7-19,.2-5.2,1.8-10.3.6-15.6-.3-1.4-.1-1.4,2-2.4-4.8-3.2-10.2-5-15.5-7.1-9.6-3.7-20.1-6-27.1-14.5-1.8-2.2-4.1-4.3-3.6-7.7,1.6-1.2,2.7.2,3.8.9,2.2,1.3,4.3,2.8,6.9,3,8.2,2.9,17,4.6,21.4,9.5a29.68,29.68,0,0,0-14.7-7.1,8.08,8.08,0,0,1-5.1-3.3c-6.2-8.9-7-20.1,3-27.4.6-.4.2-.7.2-1.1a1.62,1.62,0,0,1,1.8-1c2.5.7,3.8-.8,5.1-2.5,1.8.4,1.7,2,1.9,3.2A54,54,0,0,0,348,237.3a7.28,7.28,0,0,1,1.9,5c-.5,5.5,1.9,9.9,5.5,13.8,5.1,5.2,10.7,9.8,17.7,12.3,5.2,0,8.4-3.8,11.8-6.7a164.41,164.41,0,0,0,13.2-13.2c4.9-5.3,5.6-12,5.4-18.8a16.09,16.09,0,0,1,.7-6.5c.7-1.9,1.6-4,1.4-6-.5-6.3,4.2-9.7,7.4-13.9.9-1.2,2.2-.9,3.4-.6,5.4,1.4,10,3.9,12.4,9.3,1,2.2,1.9,4.5,2.9,6.7,2.9,6.4,2.4,12.3-2.6,17.6-2.9,3.1-5.8,6.3-9.4,8.6-5.2,1.4-10.2,3.2-12.9,5.7,2.8-2.4,7.8-4.4,13.1-5.8,1.5-.6,2.4-1.9,3.5-2.9.9-.7,1.6-1.9,3-.9,1.9,2.3,2.2,4.9,1.8,7.7-4.2,6-10.1,9.9-16.5,13.1-1.8.9-3.6,2-5.7,2-5.5,1.9-11.4,2-16.9,3.8-1.9.6-3.6,1.3-5.5,1.9-.1,0-.2.1-.3.1s-.2.1-.3.2a1.44,1.44,0,0,1,1.3,1.9c-2.5,7.3-.5,14.5.4,21.7a124.49,124.49,0,0,1,.1,26.6,14.65,14.65,0,0,0,.1,5.5,4.54,4.54,0,0,0,1.1-3.3,125.36,125.36,0,0,0-1.8-39.6,19,19,0,0,1,.6-10.8,6.65,6.65,0,0,1,5-4.3c6.2-1.6,12.6-2.3,18.8-4.1,10.4-3.7,18-11.4,26.2-18.2C436.7,243.4,438.5,241.7,440.8,244.1Z" fill="#5848f7"></path><path d="M358.5,111.5c.8,0,1.8.3,2.2-.8.1-.1.2-.3.4-.4,1.9-1,4.1-1.1,6-2,1.6.1,3.2-.4,4.7.3.4.2-.4.7.3.9,9,3,13.1,10.4,16.3,17-.4-2.4-2.8-5.4-4.8-8.6-.7-1.1-2.3-2.1-1.3-3.8,1.9-.3,3.7-1.8,5.7-.4,1.2,2.1,3.5,3,5,4.8a17.87,17.87,0,0,1,2.2,2.5c.4.6.8,1.4.2,2s-1.3.2-2-.1c-2-1.1-4.1-2.2-4.8-3.9,1.2,2.2,3.7,4.4,4.6,7.6.5,1.7.5,1.7-1.3,3.2-.3.2.1.4.2.6,1.8,2.8,1.5,5.9,1.2,8.9-.3,3.7-.3,7.5-1.8,11a21.75,21.75,0,0,1-18.4,2.6c-3.1-.9-6.1-1.8-7.7-5-.6-1.3-.5-.1-.8.1-1.3,1.1-1.9.1-2.6-.8-3.8-5.3-5.8-11.8-11.5-15.8a17.91,17.91,0,0,0-7.1-3.3c2.8.8,5.3,1.4,6.1,4.4,0,.4-.2.8-.1,1.1,1.7,4.3,2.6,9.2,7.8,11,3.1,1.1,5.1,4,8.5,4.6,1.4.3,2,1.7,1.3,3.2-3.9,1.4-7.2,3.8-10.5,6.3-3,2.3-6.6,1.1-10,1.4-3.1,0-5.4-2.2-8.2-2.8-2.4-.2-3.2,1.9-4.2,3.4-.7,1-.8,2.3-1.6,3.2-2.5,1.3-2.6-.9-2.4-2.1.8-5.1,1.6-10.3,4.2-14.9,1.1-1.9,3.1-1.5,4.8-1.3-1.9-.6-3.8.4-5.7.5a6.59,6.59,0,0,1-3.9-.6,1.7,1.7,0,0,1-.2-2.3c2.1-2.9,2.7-6.6,4.9-9.5-.2-2.2-1.4-1.7-2.7-1h.1c-1.9-.4-1.1-1.4-.6-2.4,2.5-1.9,4.7-4.1,7.9-4.7a7.08,7.08,0,0,0,1.4.1c7.3-.7,13,1.9,17.2,8-3-5.1-7.2-8.4-13.3-8.3a2.72,2.72,0,0,1-1.7-.6c.4-2.6,3.7-1.9,4.6-4.1-.7-.9-1.6-.9-2.7-.7-.7.1-1.6.1-1.9-.7s.6-1.2,1.1-1.7c.9-1,2.1-1.1,3.2-1.7,7-1.3,13.8-.8,20.1,2.9a19.9,19.9,0,0,1,7.2,8c2.3,4.2,3.9,8.8,7,12.5-4.4-5.2-5.7-12-10.1-17.2a17.44,17.44,0,0,0-9.4-5.9c-1.5-.4-3.2-.6-3.1-2.8,2.8-2,5.5-.8,8.1.5a43.91,43.91,0,0,1,4.7,2.7c2.4,4.5,5.3,8.7,7.7,13.1,1.7,3.1,2.6,6.7,4.5,9.1-2.7-4.9-4.6-10.9-7.7-16.2-2.4-5.6-9.2-10.2-15.1-10.2-1,0-2.2.7-2.9-.7C357.8,111.6,358.1,111.4,358.5,111.5Z" fill="#22323a"></path><path d="M313.9,239.3c2.4,8.1,8.6,12.7,15.7,15.9a169.42,169.42,0,0,0,20.9,7.9c4.5,1.3,9.2,3.2,12.1,7.9-1.9.5-2.6-1.2-4.3-1.2,2.3,7.9-.3,15.7-.7,23.5a124.32,124.32,0,0,0,1.4,26.6,48.86,48.86,0,0,1,.5,5.5c0,1,.5,2.4-1.2,2.6s-2.2-.9-2.4-2.2a173.11,173.11,0,0,1-2.5-20.3,117.43,117.43,0,0,1,2.3-27.7c1.8-9.3,1.4-10.4-7.4-13.5-6.8-2.4-13.4-5.2-20.1-7.7s-11.7-6.9-15.9-12.5c-.5-.7-.8-1.9-2.2-1.5-8.4,3.1-17,5.8-21.7,14.4-3.1,5.6-6,11.2-9.2,16.7a65.13,65.13,0,0,1-14.6,17.2,30.85,30.85,0,0,0-10.1,17,44.67,44.67,0,0,1-6.6,15c-4,5.9-7.5,12-11.1,18.1-2.4,4-3.1,8.9-4.5,13.4-2.3,7.4-4.6,14.9-6.7,22.4a16.76,16.76,0,0,0,1.8,14.1,32.75,32.75,0,0,1,3.9,9c-1.7.4-2.3-1.1-3.1-2.1-6.5-7.9-7.7-16.7-4.8-26.5,2.6-8.9,6.9-17.2,8-26.6a12.17,12.17,0,0,1,2-4.7c3.9-5.7,7-12,10.8-17.8a56.76,56.76,0,0,0,8.5-20.1,22.18,22.18,0,0,1,7-12.2c10.1-9.1,17.3-20.2,23.5-32a28.31,28.31,0,0,1,17.3-14.3c.5-.1.9-.3,1.4-.4,5.6-1.1,8.9-3.2,8.6-10.3-.3-6.3,2.8-12.6,5.3-18.7,1.4-1.1,2.2-.7,2.2,1C316.3,223.2,314.8,231.2,313.9,239.3Z" fill="#1c3037"></path><path d="M426.2,240.8c-2.2,1.1-3.3,3.7-5.9,4.4-.8.2-1-.2-.8-.9,3.9-3.5,7.9-6.9,10.9-11.3a13.13,13.13,0,0,0,2.4-5.7c.9-9-7.6-21.6-16.2-24-1.8-.5-3-.5-3.5,1.6-.3,1-1,2.3-1.8,2.6-3.8,1.4-3.3,4.8-4.1,7.7-2,7.2-2.4,14.5-2.9,21.9a19.86,19.86,0,0,1-6.1,13c-6.1,6.1-11.9,12.7-19.2,17.4-1.9,1.2-3.8,2.2-6.2,1.6-.2-1,.6-1.5,1.1-2.2a61.91,61.91,0,0,0,19.7-17.7c2.6-3.6,5-7.3,5.5-11.5-7.1,7.3-15.3,13.1-26,14.6-1.8.3-3.7.6-5-1.2-.3-1.4,1-1.6,1.6-2.4,2.3-1.4,4.3-3.4,7.4-2.4,1.1,0,2.3.1,2.7-1.3,1-1.8,1.2-4.1,3.6-4.7,1.3.1,1.4.9,1.2,2a16.86,16.86,0,0,0,1.2-2.8c.9-1.3,1.3-3.1,3.4-2.7,1.2,1.1.4,2.1-.2,3.3a10.63,10.63,0,0,0,1.4-3.1,14.35,14.35,0,0,1,4.5-5.6c3.5-3,5.2-7.3,6.2-11.8,1.9-8.6,3.5-17.2,3.3-26-.2-8.2,1-16.3.8-24.4-.1-2.5-.4-4.5-2.4-6.2-3.5-2.9-5.7-7-8.9-10.1-1.1-1.4-2-2.7.9-3a8.09,8.09,0,0,1,6.4,4.3,40.39,40.39,0,0,0,3.8,5.4c.8,2.3,3.8,2.3,4.7,4.4.1.3.2.7.3,1a54.1,54.1,0,0,1-.1,9s-.5.8.3.3c.2-.1.3-.3.6-.5,1.8,1,.6,3.2,1.8,4.5-3.5,7.8-2.5,16.2-3,24.5,3.2-6.9,5.7-13.9,3.7-21.7a3.44,3.44,0,0,1,.2-2.8.78.78,0,0,1,1.1,0c3.5,5.4,2.5,11.2,1.2,17a7.19,7.19,0,0,0,.1,4.8c1.4,1.5,3.4,1.8,5.3,2.3a16.59,16.59,0,0,1,11.4,10c1.2,2.9,2.4,5.9,3.4,8.9,1.3,4.3.8,8.3-2,11.8C431.7,235.9,430.1,239.6,426.2,240.8Z" fill="#1d2f37"></path><path d="M156.6,301.7c-16-.3-32-.6-48-.7-3,0-4.2-.6-3.9-3.8a80.51,80.51,0,0,0,.2-11c-.1-2.8,1.1-3.4,3.7-3.5,15.4-1,30.8-1.4,46.2-1.5a7.72,7.72,0,0,0,1.5-.2c12.2.1,24.4.1,36.6.3,3.3,0,6.6.4,9.9.4,1.6,0,2.1.6,2.2,2.1.1,5.1.3,10.2.6,15.4.2,2.5-1.4,2.3-3.1,2.3-15,0-30,.1-45,.1A2,2,0,0,0,156.6,301.7Z" fill="#25343a"></path><path d="M159.9,231.6l38.6.3c1.1,3.1-1.2,3.5-3.2,3.8a57.5,57.5,0,0,1-8.3.1,14.2,14.2,0,0,0-4.6.6c-10.5.3-21,1.2-31.5,1.1-12.5-.1-24.9.1-37.4-.1-2.9-.1-3.8,1-3.9,3.8-.1,6.9-.1,7.1,6.7,7.1h67.8c4,0,8,.1,12.1.5,4.9.6,5.5-.1,5.7-5a26.42,26.42,0,0,1,.2-2.9c.6-2.2,1.1-4.4.1-6.7-.6-1.2.1-2.1,1.5-2.2,1.8-.2,1.9,1,2,2.3a144.42,144.42,0,0,1,.4,17.4c-5.9,1.6-11.9,1.2-17.8,1.2H161.5c-1.8,0-3.7.1-5.3-.9-15.5-.2-31-.5-46.4-.5-3.6,0-4.4-1.1-4.1-4.4.3-3.6.4-7.3.4-11,0-2.1.7-2.8,2.9-3,16.4-1.3,32.9-1.5,49.3-1.5A2.88,2.88,0,0,0,159.9,231.6Z" fill="#1e323a"></path><path d="M156.1,277.4c-15.6-.3-31.2-.6-46.9-.8-2.8,0-3.9-.5-3.8-3.6q.3-6.75,0-13.5c-.1-2.6.5-3.5,3.3-3.7,14.4-.9,28.8-.2,43.2-.5,1.3,0,2.7-.1,4-.2,1.5-1.1,3.2-1,4.9-1,11.2-.3,22.3.9,33.4.8a4.64,4.64,0,0,1,3.7,1.2c-.6,2.9-2.9,2.5-4.9,2.5-11,.1-21.9,0-32.9,0-4.3,0-8.5-.1-12.8.1-10.6.2-21.2,0-31.8.1-5.1,0-5.3.2-5.3,5.4.1,10.1-1.1,9.5,8.9,9,22.8-1.1,45.6-.3,68.4-.6a55.46,55.46,0,0,1,9.1.4c1.5.2,3,.1,3.7-1.6,1.5-3.7.4-7.5.8-11.2.1-1.5-.4-3.3,1.6-4,2.3-.2,3.6.5,3.4,3.3-.2,4.7-.2,9.5,0,14.2.1,2.8-.9,3.5-3.5,3.6-15,.2-30,.4-44.9.1A8.48,8.48,0,0,0,156.1,277.4Z" fill="#20343a"></path><path d="M199.2,326.8a154.49,154.49,0,0,0-16.7.5c-3.3,2-6.8,1.2-10.4.9a1.47,1.47,0,0,1-.4-1.2c-11.8-.1-23.7-.3-35.5-.4-9.6-.1-19.3-.4-28.9-.5-2.1,0-2.7-.8-2.7-2.8.1-4.9.1-9.8-.1-14.6-.1-2.6.7-3.3,3.3-3.4,14.9-.7,29.8-.4,44.7-.5,1.3,0,2.7-.1,4-.1l35.4.9c1.9.5,4-.3,6.6.8-3.1,2.4-6.5.8-9.2,2.1-14,.6-28.1.6-42.1.1-11.1-.4-22.2-.5-33.3-.5-3.8,0-4.3.4-4.3,4.2,0,12-1.4,10.1,9.9,10.2,13.3.1,26.7.5,39.9-.1,11.9-.6,23.7.3,35.5.2,3.1,0,4.9-1,4.9-4.3.8-2.4.5-5,.6-7.5.1-2-.2-4.5,2.9-5,1.9,0,2,1.2,2,2.7,0,4.7-.2,9.5,0,14.2.2,3.3-1,4.4-4.1,4A7.17,7.17,0,0,0,199.2,326.8Z" fill="#223339"></path><path d="M335.2,133.7l-6,11.7a4.54,4.54,0,0,1,.1,2.3c-.9,4.7-.3,9.5.2,14.2-.2,3.2.9,6.1,1.1,8.5a10.32,10.32,0,0,1,1.4-6.7c1.4-2.9,1.5-6.9,6-7.3a3.06,3.06,0,0,1-.1,2.3c-4.1,9.4-2.6,19.2-1.6,28.8a169.66,169.66,0,0,0,7.2,35.1c2.2,6.8,5.9,12.5,10.3,18a12.84,12.84,0,0,1,2,2.6,1.24,1.24,0,0,1-.4,1.5c-2-.1-2.6.7-2.4,2.8.3,3,2.5,5.2,3.2,8.1-.1.7-.1,1.5-1.2,1.3-3.6-3.7-6.1-7.8-5.8-13.3a9.93,9.93,0,0,0-2.5-7c-5.8-7.1-8.3-15.6-10.2-24.3a11.5,11.5,0,0,0-.6-1.7c-2.1-2.6-4.5-5-5.4-8.4,0-3.8-1.2-7.4-2.1-11.1-.7-3.3-1-6.3,2.3-8.4,1.7-1.1.3-2.2-.1-3.1-3.8-9.1-6-18.5-5.2-28.5.3-3.1.9-6,2.9-8.5s2.1-6,4.3-8.4C333.6,134.3,333.6,130.6,335.2,133.7Z" fill="#22323a"></path><path d="M330.5,202.2c1.9,2.7,4.5,5,5.4,8.4.1,3.1-1.5,4.1-4.3,3.3-.8-.2-1.6-.5-2.3.2-.5,1.4-1.8,2-2.8,2.8-7.5,6.3-8.7,11.3-5.2,20.4.9,2.4,2.9,4.3,3.1,7-4.4.2-7.1-3.1-10.5-5-1.4-3.3-.3-6.4.3-9.6,1-4.9,1.5-9.9,3.3-14.7,1.5-4.7,4.7-8,9-10.4.7-.4,1.8-.3,1.7-1.5C328.9,202.8,329.7,202.5,330.5,202.2Z" fill="#5848f7"></path><path d="M414.4,200.4a11.88,11.88,0,0,1,1.4-5.2c-.4,2.2,1.4,2.7,2.8,3.1,6.5,1.7,11.4,5.8,16.3,10.1a22.4,22.4,0,0,1,7.3,13.2c.7,3.8,1.3,7.7,1.7,11.6.3,2.4.2,4.9-1.6,6.9a8.67,8.67,0,0,1-1.4,2.7v1.4c-2.1-1.1-3.6-.1-5.1,1.2-4.8,4.1-9.5,8.2-14.5,12.1a33.43,33.43,0,0,1-11.9,6c-1.1.3-2.2,1.1-2.9-.6,8.6-2.4,14.9-8.2,21.2-14,1.9-3.2,5-5.3,7.9-7.5,3.4-2.6,4.9-5.6,3.8-9.9a28.9,28.9,0,0,1-.8-6.5c-.1-9.1-5.1-15-11.9-20C423.1,202.3,419.3,199.9,414.4,200.4Z" fill="#1b3238"></path><path d="M197.8,256.2c-13.9-.3-27.8-.7-41.8-1v-3.1l46.7-.3H206c-.6,1.2-2.9.2-3,2.2C200.6,253.2,199.7,256,197.8,256.2Z" fill="#e9e3b6"></path><path d="M197.8,256.2c1.6-1.2,2-5.1,5.3-2.3,0,.7-.1,1.5-.1,2.2-1.1,3.5-.3,7.2-.7,10.8-.2,1.4.3,2.9-.5,4.3-2.5-3.2-.9-6.7-.7-10.1-.1,3.2-2,5.7-3.7,8.2a2.72,2.72,0,0,1-3.5,1.1c-2.3-.7-5.4-6-5-8.4a1.82,1.82,0,0,1,2-1.7c.9,0,1.9.7,2.9-.4-1.3-.8-2.6-.5-3.8-.5-12.7,0-25.4,0-38-.1-1.4,0-3.7,1-4.2-1.7h38.7c2.8,0,5.6,0,8.4-.1C196,257.6,197.3,257.8,197.8,256.2Z" fill="#5848f7"></path><path d="M414.6,178.2c-.4.1-.8.1-1.1.2a.82.82,0,0,1-1.2,0c-.5-1.5-1-3-1.4-4.5-1.2-1-.7-2.4-.8-3.7v-6.5a39.8,39.8,0,0,1-.2-6.9c.4-3.5,1.9-6.8,2.3-10.3.9-7.9-1-14.9-6.4-20.8a5.46,5.46,0,0,1-1.8-3.1c.2-.9.5-1.6,1.6-.8,10.2,8.2,12.4,18.7,8.6,30.8-1.4,4.5-1.3,9.2-1.2,13.8a25.56,25.56,0,0,1-.3,6.2C411.9,175.2,412.6,176.9,414.6,178.2Z" fill="#373e40"></path><path d="M203.6,232.1c-.3.7-1.7.9-.7,2,1.6,1.8.9,3.7.3,5.6-.9-.2-.6-1.5-1.5-1.9-1.3,2.1-2.2,4.4-3.5,6.4-1.8,2.9-4.3,3-6.5.4a11,11,0,0,1-2.3-5q-.75-3.75,3-2.7c.6.2,1,.7,2,.3a8.87,8.87,0,0,0-5-.7c-2.2.1-4.6.9-6.6-1,4-.8,8.2-.4,12.2-.7,1.9-.1,3.4-.5,3.4-2.8,0-.2.1-.5.1-.7,2-1,2.1-3.5,3.6-4.9.6-.6,1.2-1.3,2.2-.7s.6,1.4.3,2.3C204.3,229.2,204,230.7,203.6,232.1Z" fill="#5848f7"></path><path d="M203.4,305.7c-2.3,1.9-1.8,4.6-1.9,7.1-.1,1.6-.3,3.1-.4,4.7-1.5-1.1-1-2.6-.8-3.9.2-.5-.7,0-.3-.1.2,0,.2.1.1.3-.2.5.2-.1-.1.4-1.5,2.4-2.3,5.7-6,5.5-2.4-.1-5.2-3.5-6-6.8-.5-2.3.3-3.2,2.7-2.4a5.78,5.78,0,0,0,1.7.6,1.7,1.7,0,0,0,1.9-1.3c.4-1.4-.8-1.2-1.5-1.3-.9-.2-2-.1-2.6-1.1,2.3-.9,5,.3,7.5-.9-1.9-1.3-4-.2-5.7-.9,2.8-.7,5.9.5,8.5-2.1C201.9,302,203.1,304,203.4,305.7Z" fill="#5848f7"></path><path d="M338.8,126.4c-2.8.8-4.7,3.1-7.3,4.3a1.36,1.36,0,0,1-1.3-.7,28.62,28.62,0,0,1,10.2-6.1c1.9-.7,3.9-1.2,5.4-2.9-3.7-.7-6.3,1.8-9.2,3.2,1-3,3.1-4.8,5.3-6.3a55.21,55.21,0,0,1,15.3-7.3c.9-.3,1.4,0,1.3,1-.2,0-.4,0-.5.2-1.5,2.2-4.4,1.9-6.3,3.4-1.5.9-3.3.9-4.8,1.7a10.87,10.87,0,0,0-4,2.9h5.3c.6,0,1.3-.1,1.5.7s-.4,1.1-.9,1.4c-2.1,1-4.1,2-6.2,3A4.26,4.26,0,0,1,338.8,126.4Z" fill="#78796a"></path><path d="M405.3,121.9a1.66,1.66,0,0,0-1.4,1c-5.8-1.8-11.4-4.2-15.9-8.5-2-1.6-3.9,1.1-5.9,0-3.6-1.5-6.5-4.2-10.3-5.2-1.7-1-3.4-.8-5.2-.5-1.8,1.2-4.1,1-5.9,2h0c-1-.3-1.3-.9-.1-1.2,7.6-2.3,15.2-3.4,22,2.3.6.5,1.2,2,2.1.1.3-.7,1.3-.6,2-.2C392.7,115.4,399.4,117.9,405.3,121.9Z" fill="#535750"></path><path d="M328.1,203c.3.2,1.2.5.6.8-5,2.4-8.2,6.7-11.3,11,.1-1.6-1-.6-1.6-.7A24.67,24.67,0,0,1,328.1,203Z" fill="#3a4c4c"></path><path d="M330.2,130c.5,0,1.1,0,1.3.7-.9.7-.2,1.4,0,2.2-1.6,1.4-3.5,2.6-4.1,4.9a1.19,1.19,0,0,1-1.7.9c-.9-.4-.6-1.3-.3-1.9C326.9,134.4,327.8,131.7,330.2,130Z" fill="#32393c"></path><path d="M440.9,242.8c-.9-1.6.4-2.1,1.4-2.7,2.1,2,5.2,1.8,7.4,3.6C446.7,243.6,443.9,242.4,440.9,242.8Z" fill="#489888"></path><path d="M335.2,133.7c-1.2-1.6-1.6.7-2.5.6.1-.9-.2-1.6-1.3-1.4.9-1.6,2.2-1.4,3.6-.8C335.8,132.5,336,133,335.2,133.7Z" fill="#32393c"></path><path d="M447.2,494c-.7,1.6-2.1.9-3.2.8-48.1-2.9-96.2-3.1-144.3-4.7-17-.6-33.9-.8-50.9-1-2.6,0-2.4-1.5-2.4-3.1-.3-11.6-1.9-23.1-2.8-34.7a38.46,38.46,0,0,0-.8-4.7c-1.5-17.1-3-34.3-4.5-51.4-.7-8.3-1.2-16.6-1.8-24.9-.3-4.1.8-5.5,5-5.6,5-.1,10,0,15,.2,44.1,1.6,88.2,2.5,132.3,3.6,19.3.5,38.6.9,57.9,1.4,6,.2,6.8.9,6.5,7-1.4,26.2-3,52.5-4.5,78.7a28.05,28.05,0,0,0,0,2.9,281.69,281.69,0,0,0-2.9,34.3.89.89,0,0,0,.8,1C446.9,493.6,447.1,493.7,447.2,494Z" fill="#f6f8f9"></path><path d="M539.5,247.2c19.2,0,38.4.1,57.6-.1,3.5,0,4.1,1,4,4.3-.7,20.9-2.9,41.7-1.8,62.7.1,2.2-.7,2.6-2.7,2.7-14.3.6-28.6-.2-42.9-.1-24.3.1-48.7-.1-73,.5-3.1.1-4.3-.7-4.2-4,.4-14.4.5-28.8.7-43.3.1-6.7-.5-13.4.1-20.2.2-2.3.9-3.2,3.5-3.2,19.6.2,39.1.1,58.7.1Z" fill="#f6f8f8"></path><path d="M454.5,408.4c.4-5.5.8-11,1.1-16.4.1-2,.7-3.1,2.5-3.9,4.3-1.8,8.5-3.7,12.6-5.8,2.1-1.1,3.8-.1,5.5.6,9.7,3.9,16.3,11.4,21.7,19.9a62.14,62.14,0,0,1,7.7,16.5c.6,2.2.2,3.3-2.3,3.8-15.2,3.1-30.5,5.2-46.1,4.8-2.9-.1-3.7-.8-3.6-3.8.3-5.2.1-10.5.1-15.7Z" fill="#f7f7f4"></path><path d="M601.4,240.9v.5c0,2.9-2,2.7-4,2.7H486.5a10.85,10.85,0,0,0-4,.3h-2.8c-2.9.1-3.5-1.2-2.3-3.7a8.82,8.82,0,0,1,3.6-.3H597.8C599.1,240.4,600.3,239.9,601.4,240.9Z" fill="#f5ecbd"></path><path d="M601.4,240.9c-3.3,0-6.6-.1-9.9-.1-38,0-76-.1-114-.1,1.3-1.4,3-.8,4.5-.8,36.8,0,73.6,0,110.4.2C595.4,240.1,598.6,238.5,601.4,240.9Z" fill="#78786a"></path><path d="M482.5,244.3c2.3-1,4.8-.6,7.2-.6,35.8,0,71.7-.1,107.5,0,1.9,0,3.7.1,4.1-2.3.9,3.5-1.6,3.1-3.7,3.1-27.4,0-54.9-.1-82.3-.1C504.5,244.3,493.5,244.3,482.5,244.3Z" fill="#78786a"></path><path d="M135.7,53c.2-10.2-1.8-19.4-4.7-28.9C139.9,31.5,142.8,47.8,135.7,53Z" fill="#f6f7f3"></path><path d="M447.2,494h-.3l-.2-.2c.1-1.3-.3-2.6.9-4.6C448.2,491.3,448.7,492.6,447.2,494Z" fill="#1d2f37"></path><path d="M559.3,210.6a29.46,29.46,0,0,0,.1-4.2c0-1.4.4-2,1.9-2a15.14,15.14,0,0,0,3-.2c5.8.1,11.5.2,17.3.2,1,0,1.2.3,1.3,1.2a27.85,27.85,0,0,1,.1,5c0,1.1.3,1.4,1.4,1.4,4.3-.2,8.5-.1,12.8.1,1.3.1,1.7.5,1.8,1.8.2,5.6.1,11.2-.1,16.9,0,.4-.1.9-.1,1.3a.77.77,0,0,1-.7.8c-.4.1-.6-.2-.8-.5a6.71,6.71,0,0,1-.9-1.4,2.89,2.89,0,0,0-3.6-1.9c-3.8,0-7.6-.1-11.4-.1-1.9,0-3.8-.1-5.7,0-.7,0-.6-.4-.6-.8.1-1.8,0-3.6.1-5.4.1-1-.2-1.4-1.3-1.3a63,63,0,0,1-9.7-.1,1.1,1.1,0,0,0-1.3.7c-.5.9-1.1,1.7-1.7,2.6-.2.4-.4.8-1,.7s-.6-.6-.7-1.1c-.4-4-.2-8.1-.3-12.2A8.08,8.08,0,0,0,559.3,210.6Z" fill="#232e37"></path><path d="M597.9,231.2c-.2-.3-.5-.5-.6-.7-.9-2.4-2.7-2.5-4.9-2.6-4.9,0-9.8-.3-14.7-.2-.7,0-1.1-.1-1.1-1,.1-4.2.3-8.5.3-12.7,0-1.1.7-.7,1.2-.7h15.4c1.2,0,2.4-.1,3.7-.2.6,0,.9,0,.9.7-.1,5.6-.1,11.3-.2,16.9C598.1,230.8,598,230.9,597.9,231.2Z" fill="#f6f8f9"></path><path d="M560.8,223.4c-.5-.4-.3-.8-.3-1.2,0-5.3-.1-10.6-.1-15.9,0-.9.3-1.1,1.1-1,6.3.4,12.6.2,18.9.1.9,0,1.2.2,1.2,1.1a27.06,27.06,0,0,0,.1,4c.1,1.1-.1,1.5-1.3,1.5s-2.5.1-3.8,0c-.8,0-1,.2-1.1,1a48.66,48.66,0,0,0-.1,5.4c.1,1.1-.3,1.5-1.5,1.5-3.1,0-6.2.2-9.2.2-1.4,0-2.3.3-2.9,1.7A8.64,8.64,0,0,1,560.8,223.4Z" fill="#f6f8f8"></path><path d="M71,183.8H40.9c-1.9,0-3.2,0-3.2-2.6.2-14.8,1.2-29.6.3-44.4-.2-2.5,1.5-2,2.9-1.9,14.8.4,29.6.9,44.3,1.3q7.35.15,14.7-.3c2.7-.2,3.6.5,3.5,3.4-.3,9.9-.4,19.8-.5,29.7,0,4.1.2,8.3.5,12.4.3,2.8-.3,3.9-3.5,3.6C90.3,184.1,80.6,184.1,71,183.8Z" fill="#f6f8f9"></path><path d="M207.4,154.7c8.7.2,17.4.4,26-.2,2-.1,2.6.4,2.5,2.4-.2,14.8-.4,29.6-.5,44.4,0,2-.5,2.7-2.7,2.7-17.7-.3-35.4-.6-53.1-.7-2.2,0-2.6-.9-2.5-2.8.1-14.2,1.1-28.3.5-42.5-.1-2.7.9-3.3,3.4-3.2C189.8,154.8,198.6,154.7,207.4,154.7Z" fill="#f6f8f9"></path><path d="M298.5,118.9c-1.4,0-2.8-.1-4.2-.1-11.7-.8-23.4-.5-35.1-.4-3.4,0-4.3-.8-4.2-4.2q.45-19,.3-38.1c0-3.1,1-3.5,3.7-3.5,16.1.2,32.2.6,48.4,0,1.5,0,2.4.4,2.4,2.3-.3,13.9-.5,27.8-.7,41.8,0,1.8-.7,2.3-2.4,2.2C303.8,118.8,301.1,118.9,298.5,118.9Z" fill="#f6f8f9"></path><path d="M414.4,200.4c.7-1,1.3-2.1,2.9-1.4,9.6,3.8,17.8,9.2,21.2,19.5,1.8,5.4,1.8,11.2,2.1,16.9a6.39,6.39,0,0,1-2.4,5.1l-10.5,8.4a16.27,16.27,0,0,0-1.5-8.1,70.62,70.62,0,0,0,7.1-8.3c2.5-3.7,3.4-7.6,1.5-11.7-2.1-4.8-2.9-10.4-7.3-14.1a18.46,18.46,0,0,0-7.4-3.7C418.2,202.5,415.7,202.6,414.4,200.4Z" fill="#5848f7"></path><path d="M385.8,271.6c-1.8,6-.1,11.9.8,17.7,1.9,11.5,1.5,23.1.4,34.7a11.63,11.63,0,0,1-.4,1.8c-.3,1.1-.6,2.3-2.1,2.1-1.3-.2-1.2-1.4-1.2-2.3a54.9,54.9,0,0,1,.3-5.8,104.68,104.68,0,0,0-1.2-33.5c-1-5.1-1.4-10.4,1.3-15.4-1.7-.6-2.2,1.4-3.9,1.3.3-2.2,2.2-2.6,3.6-3.4C387.1,267.5,386.1,269.8,385.8,271.6Z" fill="#18333a"></path><path d="M324.4,244.3c-4.9-6.3-7.7-12.9-4.6-20.9,1.8-4.6,5.7-6.8,9.5-9.2,2.1.5.3,1.1-.1,1.5-2.2,2.1-4.3,4.1-5.6,7.1-2.9,6.7-1,12.6,2.4,18.4a7.63,7.63,0,0,0,5.4,4c7.6,1.2,13.4,5.5,18.4,11.2A89.89,89.89,0,0,0,324.4,244.3Z" fill="#1a353b"></path><path d="M385.8,271.6c-.1-1.5.2-3.2-2.2-2.9,5.3-3,11.4-3.1,17.1-4.5,1.9-.5,3.8-.9,5.7-1.3.8,1,1.9.4,2.9.6-3.8,1.8-7.9,2.3-11.9,2.9-3,.4-5.9,1.5-8.8,2.1C386.6,268.9,386.7,270.5,385.8,271.6Z" fill="#20625f"></path><path d="M355,256.9c.6-.2.6-.8.7-1.3.8-.7,1.3.1,1.8.5,5.1,4.3,10.4,8.5,16.4,11.5,0,.9-.9,1-1.2,1.5C365.7,266.5,360.2,262,355,256.9Z" fill="#406565"></path><path d="M419.5,244.3a6.47,6.47,0,0,1,.8.9,65.1,65.1,0,0,0-16.2,7.7A24,24,0,0,1,419.5,244.3Z" fill="#226b67"></path><path d="M388,114.4c5,3.4,11,4.9,15.9,8.5,11,9.4,10.8,21,6.8,33.5a16.78,16.78,0,0,0-.1,7.4v6.5c-1.7,0-.9-1.3-1-2-.2-1.2.3-2.6-.3-3.8a6.37,6.37,0,0,1-.2-.7c-.7-2.2-3.6-1.7-4.4-3.6a62.55,62.55,0,0,1-4-5,9,9,0,0,0-5.6-4.5c-1-1.2-2.7.5-3.6-.9-1.1-3.3.5-6.4.7-9.7a39.5,39.5,0,0,0-1.1-12.3c.4.8.8,1.6,1.6,3.1-.2-6.3-4.8-9.6-6.5-14.5,3,2,5,5.2,8.9,6.7a27,27,0,0,0-5.9-6.2C388.8,116.1,387.2,116,388,114.4Z" fill="#22323a"></path><path d="M346.8,116.7a14,14,0,0,1,4.4-2.2c2.4-.4,4.8-2.1,7.4-.7.6,1.3,1.9,1.3,3.1,1.6a16.42,16.42,0,0,1,11.6,8.7c3.2,5.8,6.2,11.8,9.1,17.7-3.6-3.6-5.9-8.1-8-12.6-1.9-4.1-4.5-7.5-8.6-9.6a26.85,26.85,0,0,0-15.7-2.9Z" fill="#22323a"></path><path d="M391.7,149.6c1.2.4,2.7-.7,3.6.9-1.6-.2-1.6.4-.8,1.5-7.2,1.9-14.1,5.4-21.9,2.6-3.8-1.4-7.4-.2-10.6,2.3-2.8,2.2-5.4,4.6-9.3,4.4a25.79,25.79,0,0,0-3.9-.4c-1.1-.1-2.5,0-2.7-1.6,5.5.6,10.5-.4,14.4-4.8,1.6-1.8,4.1-1.7,6.2-2.6,1.9-1.2,3.8-.1,5.7-.3,5.3,1.2,10.6,2.1,15.7-1A21.24,21.24,0,0,1,391.7,149.6Z" fill="#8e8f7f"></path><path d="M349,132.9c-1.1-3-4.2-3.3-7.4-5,5.6-.3,9.3,2.1,12.2,5.2,3.6,4,6.1,8.8,8.5,13.6-4.9-.7-7.2-4.8-10.1-8C350.9,137.2,348.8,135.6,349,132.9Z" fill="#22323a"></path><path d="M332.1,163.7c-.2,2.9-.4,5.9-.6,8.8a16.4,16.4,0,0,1-2.9-10.2c1-4,1.1-8.1,2.7-12,.9-2.1-2.1-2-2.5-3.5.2-.5.3-1,.5-1.4,2.4-.1,4.8-.3,7.3-.3,2.2,0,4.4.3,5.5,2.7-.7.6-1.1-.1-1.5-.4-3.1-2.2-3.6-1.2-5.8,1.7-2.7,3.5-2,7.6-3.5,11.3C330.8,161.1,329.1,163.3,332.1,163.7Z" fill="#22323a"></path><path d="M349,132.9c3.6,5.4,7.7,10.3,13.3,13.8l1.2,1.2c2.6-4.1,2.9.4,3.5,1.2,1.5,1.8,3.6,1.8,5.5,2.5l-5.7.3c-1.8-3.5-5.7-3.9-8.6-5.5a25.54,25.54,0,0,1-7.1-5.5c-.3-.4-3.4-1.3-.2-2.3.4-.1-.9-1.5-1.5-2.1C348.3,135.4,347.2,134.3,349,132.9Z" fill="#22323a"></path><path d="M362,129.1c7.4,6.2,9,16.8,17.8,22.4C373.6,151.7,365.7,141.5,362,129.1Z" fill="#22323a"></path><path d="M338.8,126.4c1.2-.6,2.4-1.1,3.6-1.7,6.5-.5,11.6,1.7,15.2,7.4a4.14,4.14,0,0,1,.9,3.4c-1.3-1.2-2.9-2.3-4.2-3.7a13.41,13.41,0,0,0-11.7-4.9C341.4,127,340,127.3,338.8,126.4Z" fill="#22323a"></path><path d="M371.8,109.3c4.3,0,7.5,2.2,10.3,5.2,3.3,4.5,6.7,8.8,7,14.8-2.5-6-6.5-10.8-10.9-15.4C376.3,111.8,373.3,111.7,371.8,109.3Z" fill="#22323a"></path><path d="M376.2,122.6c4.1,5.1,5.3,11.6,7.8,17.5-3.1-2.9-4.2-6.9-6.4-10.4s-3.8-7.6-6.8-10.7a.9.9,0,0,1,.2-1.5C373.9,118.1,375.1,120.3,376.2,122.6Z" fill="#22323a"></path><path d="M376.2,122.6c-1.9-1.5-2.9-4-5.1-5.1-3.9-2.2-7.3-6-12.5-3.6-2.4.3-4.9,1-7.4.7a15.25,15.25,0,0,1,6.7-2.8c4.3.9,8.8,1,12.6,3.9,2.1,1.7,4,3.6,5.9,5.4C376.9,121.5,376.9,122.1,376.2,122.6Z" fill="#22323a"></path><path d="M346.1,159.3c2,1.7,4.6-.2,6.6,1.4-4.8,2.5-11.1,1.3-15.4-2.8.2-.5.5-1,.7-1.5C341.1,156.5,343.1,159.2,346.1,159.3Z" fill="#575e5e"></path><path d="M380.1,118.4c-1.5-1.2-3-2.4-4.6-3.5s-3-2-5.2-3.3C375.6,111.8,377.9,115.1,380.1,118.4Z" fill="#22323a"></path><path d="M360.7,110.8c1.6-1.9,3.9-1.5,5.9-2C365.1,110.7,362.8,110.4,360.7,110.8Z" fill="#fcebbb"></path><path d="M337.3,157.8a24.18,24.18,0,0,0,15.4,2.8c3.4-.4,6-2.4,8.5-4.6a11.12,11.12,0,0,1,10.5-2.7c5.9,1.5,11.7,2,17.4-1.2,1.7-1,3.6-.3,5.4-.1,3.6,2.1,4.7,6.5,8,8.8,3.8,2.7,4.5,6.2,4.1,10.8-1,13.3-.4,26.6-2.5,39.9-.7,4.5-1.4,9-3.2,13.1-1.5,3.4-2.8,7-6.8,8.8-1.4.6-2,2.9-3,4.5-.9.5-1.1-.4-1.6-.7-1.8.1-2,1.8-2.8,2.9-.7,1.7-2.1.2-3,.6a10.06,10.06,0,0,0-2.9,5.1,4.72,4.72,0,0,0-3.4,1c-.5.5-1,1.5-1.3,1.5-1-.1.5-1.6-1-2-.5,2.4-3.1,1.8-4.5,3.2-5,1.4-11.5-1.1-14.6-5.7-6.4-5.6-10.5-12.7-13.1-20.7-5.1-15.8-7.5-32-8.5-48.6A28.25,28.25,0,0,1,337.3,157.8Z" fill="#f6f8f9"></path><path d="M373.9,267.6a9.09,9.09,0,0,1-5.7-2.1,109.53,109.53,0,0,1-12.5-10,19.48,19.48,0,0,1-4-12.5c1.4-.4,2.1.9,3.2,1.4,4.5,2.1,8.6,4.8,13.3,6.5,5,1.1,9.7,0,14.1-2.2,7-3.5,13.6-7.5,17.9-14.8C400.6,244.9,386.9,262.1,373.9,267.6Z" fill="#f5f7f5"></path><path d="M412.2,178.5h1.2c3.1,7.9,1,20.7-4.4,27.2-1.2-.6-.5-1.7-.5-2.5.2-5.3.5-10.7.5-16A12.8,12.8,0,0,1,412.2,178.5Z" fill="#f0f1ef"></path><path d="M368.1,251c-5.1-.7-9.4-3.2-13.3-6.5a6,6,0,0,0,.8-.8c3.1,1.7,6.2,3.5,9.4,5.1a8.71,8.71,0,0,0,5.3.6C370.1,250.6,368.6,250.1,368.1,251Z" fill="#686f75"></path><path d="M409.3,164.4c1.7,1.7-.1,4.1,1.3,5.8.1,1.2.1,2.5.2,3.7-.4,1-.2,2.2-1.5,3.3Z" fill="#22323a"></path><path d="M377.1,246.7c.4-1.2,1-2.6,2.3-2.8,1-.2.1,1.6,1.1,1.9C379.8,247.5,378.9,248.7,377.1,246.7Z" fill="#656c72"></path><path d="M383.5,240.6c.7-1.7,2.2.6,3-.6a9,9,0,0,1-3.2,4.9C382.1,243.3,385.2,242.1,383.5,240.6Z" fill="#656b71"></path><path d="M389.4,237.1c.5.2,1.1.5,1.6.7,0,1.9-1.4,2.8-3,3.6C388.4,240,388.9,238.6,389.4,237.1Z" fill="#9a9ea0"></path><path d="M404.8,160.1c1,1.8,4.5.5,4.4,3.6C408,162.2,405.1,162.7,404.8,160.1Z" fill="#22323a"></path><path d="M154.7,298.7c-14.5,0-29.1-.1-43.6.1-2.7,0-3.4-.8-3.4-3.3a39.43,39.43,0,0,0-.3-6.9c-.4-2.7.7-3.2,3.2-3.2,16.2.1,32.5.3,48.7.1,13.4-.2,26.9-.3,40.3-1.4,2.6-.2,3.2.7,2.9,3a43.43,43.43,0,0,0-.6,8.8c.2,3.5-1.4,3.8-4.3,3.8-14.3-.1-28.6-.1-42.9-.1Z" fill="#fcfcfc"></path><path d="M182.9,235.4c3.8.5,7.5-.2,11.3,0,.8,0,2.1-.4,2,.8a5,5,0,0,1-1.4,2.9c-1,1.3-1.2-.3-1.7-.7-.7-.6-1.6-1.6-2.5-.9s-.3,1.8,0,2.7a12.87,12.87,0,0,0,1.9,3.9c1.7,2.4,3.5,2.2,4.9-.4,1.6-2.9,3.3-5.8,5.1-9,1.3,1.9.2,3.6.8,5a43.61,43.61,0,0,0-.3,6.2c.3,3.5-1,4.5-4.5,4.4q-22.35-.75-44.7-.9-20.7-.15-41.4,0c-2.6,0-3.9-.4-3.7-3.3a26.45,26.45,0,0,0-.3-6.9c-.4-2.6.4-3.3,3.1-3.2,16.5.5,33,.4,49.5.1C168.2,235.9,175.5,235.6,182.9,235.4Z" fill="#fbfbfb"></path><path d="M147.7,257.7c1.2.9,2.6.4,3.9.4h45.2c-1.9,2-1.1,6.6-5.5,3.1a1.26,1.26,0,0,0-1.3-.2c-.6.4-.4,1.1-.2,1.6a39,39,0,0,0,2,4.7c2.1,3.5,3.9,3.4,5.9-.1,1.2-2.2,2.4-4.4,4.2-7.6v11.6c0,2,.1,3.3-2.9,3.2-27.7-1.3-55.4-.5-83.2-.1-6.5.1-6.5.2-6.6-6.2,0-3.4-1.5-7.8.5-9.9s6.5-.6,9.8-.6C128.9,257.5,138.3,257.6,147.7,257.7Z" fill="#fcfcfc"></path><path d="M190.2,307.4c.6.1,1.2.1,1.8.2,1.4.2,3.3-.8,4,.6s-1.2,2.4-1.8,3.7-1.4,1.3-2.4.3c-.8-.7-1.8-1.1-3.3-2.1.6,3.8,1.7,6.4,4.3,8.3,1.8,1.4,3.2.5,4.3-1.1s2.2-3.4,3.7-5.6c.2,2.4.3,4,.4,5.6-.2,6.6-.2,6.5-6.8,6.2-26-1-52.1,0-78.1,0-7.8,0-7.8,0-7.9-7.6-.1-9.2-.1-9.1,9-9.1C141.5,307.1,165.9,307.2,190.2,307.4Z" fill="#f8fdfd"></path><path d="M328.7,146.8c4.3.6,4.7,1.3,3,5.3a29.39,29.39,0,0,0-1.7,7.1c-.2,1.2-.2,2.4-1.5,3.1C328,157.1,327.5,151.9,328.7,146.8Z" fill="#22323a"></path><path d="M331.8,183.4c.9,6.9,1.7,13.2,2.6,19.9C330.5,198.8,328.9,187.4,331.8,183.4Z" fill="#cfd2d3"></path><path d="M410.6,163.7c-.9-2.5-1.2-4.9.1-7.4C410.7,158.8,410.7,161.2,410.6,163.7Z" fill="#22323a"></path><path d="M336.8,434.5c-.3-2.3,1.4-5.7-3.4-5.4-1.5.1-1.1-1.3-.4-2.1a86.75,86.75,0,0,1,10.7-9.4,1.8,1.8,0,0,1,2.3.1,50.42,50.42,0,0,1,10.9,8.6c1.3,1.4,1.2,2.5-.9,2.6-2.3.1-2.5,1.5-2.5,3.2v4.8c0,1.8.5,3.7-2.5,3.7-2.7,0-3.5-1.1-3.4-3.5.1-1.9,0-3.3-2.6-3.2-2.4.1-2.6,1.4-2.4,3.1.3,2.3-.3,3.6-3.1,3.5s-3.1-1.6-2.9-3.8A7.84,7.84,0,0,0,336.8,434.5Z" fill="#17232e"></path><path d="M391.8,191.7c-6.2-1.8-11.1.7-16.1,2.2-1.7.5-2.7,1.4-2.6,3.4.1,1.1.1,2.5-1.5,2.4-1.8-.2-1.2-1.7-1.1-2.9a5.79,5.79,0,0,1,3.9-5.2c4.4-1.7,8.7-3.7,13.7-2.5A5.91,5.91,0,0,1,391.8,191.7Z" fill="#444d56"></path><path d="M355.7,193c3.4.8,6.1,2.4,7.2,6,.3,1,.6,2-.6,2.5a1.5,1.5,0,0,1-2.2-1.3c-.1-4.5-3.4-5.4-6.7-6.4C353.9,192.9,355,193.5,355.7,193Z" fill="#5b636b"></path><path d="M355.7,193c-.5,1-1.6.5-2.3.8-3.6-.8-7.4,1.3-11.8-1.3A23.16,23.16,0,0,1,355.7,193Z" fill="#28333d"></path><path d="M384.2,198.9c-.3,1.5-1.2,2.5-2.8,2.3-1.8-.2-2.5-1.4-2.3-3.1a2,2,0,0,1,2.5-2C383.2,196.3,384.3,197.1,384.2,198.9Z" fill="#3c464e"></path><path d="M369.6,225.3c-.7-.5.1-1-.1-1.5.7-.5,1.4-1.3,2.1-1.3,3.1,0,4.6-1.5,4.9-4.7,1.5,2.3,1.1,4.4-1.2,5.6C373.7,224.4,371.6,224.7,369.6,225.3Z" fill="#50575f"></path><path d="M355.9,199.9a2.27,2.27,0,0,1-2.5,2.1c-1.7,0-2.3-1-2.3-2.6a2,2,0,0,1,2.3-2.1C355.2,197.3,355.6,198.5,355.9,199.9Z" fill="#2c3741"></path><path d="M364.5,222.4c-.7,1.5-2,.7-3,.8-.5-.5-1.1-1-1.6-1.5-.8-.9-1.2-2.3-.2-2.9,1.2-.7,1.5.8,1.7,1.7C361.8,222.2,363.3,222.1,364.5,222.4Z" fill="#60666d"></path><path d="M112,292.1c2.7.3,5.1.1,7-1.7.5-.4,1.6-.7,2-.4,3,1.7,6.1,1.5,9.4,1.6,2.6,0,4.9.3,7.3-1a4.32,4.32,0,0,1,4.5.4,9.31,9.31,0,0,0,8.7,1.1,4.3,4.3,0,0,1,2.5-.2c6.7,1.5,13.5-.5,20.2,0,.4,0,.9.3,1.5.4-.4.4-.6.9-.8.9-5.6-.3-11.2,1.9-16.9.6-1.4-.3-2.9-.8-4.3-.4-4.3,1.2-8.6,1.9-12.5-1.1a2.24,2.24,0,0,0-1.8-.1c-3.5,2.2-7.5,1.5-11.3,1.5-4.4.1-8.8-2.9-13.2.4C114,294.4,112.5,293.9,112,292.1Z" fill="#545b63"></path><path d="M170,241.5c4.3.2,8.6,1.9,13.2-.4-.3,2.5-1.7,2.4-3,2.4-2.2.2-4.4-.5-6.6,0-6.2-1.7-12.7-.1-18.9-1.3a7.19,7.19,0,0,0-3.5.8c-5,1.5-10.1.6-15.2.9-4.1.2-7.9-2.4-12.4-.5-2.7,1.2-6.2.6-9.4.7-.6,0-1.3-.3-1.3-1s.7-.8,1.3-.9a97.21,97.21,0,0,1,12.9-1.3,41.89,41.89,0,0,1,10.8,1.5,21.49,21.49,0,0,0,11.8-.1c4-1.4,7.6-1.1,11.4-.9C164.2,241.4,167.1,241.6,170,241.5Z" fill="#575f67"></path><path d="M170,241.5a12.15,12.15,0,0,1-8.8-.1A15.5,15.5,0,0,1,170,241.5Z" fill="#555b63"></path><path d="M173.7,243.6a7.63,7.63,0,0,1,6.6,0C178.1,244.6,175.9,244.1,173.7,243.6Z" fill="#555b63"></path><path d="M154.6,267.1c-4.7,0-9.4.5-14,0-4.8-.5-9.4-.9-14,.7-.7.2-1.5.5-2.1-.1-1.6-1.7-2.8-.6-4.1.3-.9.7-2.1.8-2.6-.2-1.2-2.4-2.8-2-4.7-.8,1.5-2.7,2.9-4.8,5.5-1.3a1.06,1.06,0,0,0,.6.4c2.8-2.6,5.9.3,9-.5a30.65,30.65,0,0,1,11.3-.4c2.6.3,5.2,1.3,7.9.4a8.41,8.41,0,0,1,6.4.6C154.5,265.9,154.7,266.4,154.6,267.1Z" fill="#4c535b"></path><path d="M154.6,267.1a6.47,6.47,0,0,0-.9-.8c2.2-2.2,4.8-1.1,7.3-.9,5.5.4,11,.6,16.5,1.4-4,1.2-8,.3-12,.4C161.8,267.3,158.2,266.3,154.6,267.1Z" fill="#666d73"></path><path d="M143.9,317.9a3.75,3.75,0,0,1,4.3-2.2c8.6,1,17.2-.4,25.9-.3a10.87,10.87,0,0,1,1.8-.1c1.4.2,3.5,0,3.3,1.9-.1,1.4-2,.4-3.1.4-7.8.1-15.6.2-23.4.2C150,317.9,147.2,317.9,143.9,317.9Z" fill="#7f868c"></path><path d="M133.7,315.7a43.18,43.18,0,0,1-19.9.6c0-.9.8-1.9,1.4-1.7C121.3,316.1,127.6,314,133.7,315.7Z" fill="#515a62"></path><path d="M355.5,230.1s10.4,9.8,25.3-.5" fill="none" stroke="#5f666e" stroke-miterlimit="10"></path><path d="M54.7,169.8h0a.8.8,0,1,0,.8.8A.86.86,0,0,0,54.7,169.8Z"></path><path d="M61.5,169.8h0a.8.8,0,1,0,.8.8A.79.79,0,0,0,61.5,169.8Z"></path><path d="M89.7,169.8h0a.8.8,0,1,0,.8.8A.86.86,0,0,0,89.7,169.8Z"></path><path d="M98.3,160.1,97.2,159,95,152.5a.87.87,0,0,0,.6-.8.86.86,0,0,0-.8-.8H87.1v-3.5a1.69,1.69,0,0,0-1.7-1.7H46.2a1.69,1.69,0,0,0-1.7,1.7v18.8a1.69,1.69,0,0,0,1.7,1.7h.9v1.8a1.69,1.69,0,0,0,1.7,1.7h1.8a4.27,4.27,0,0,0,4.1,3.4,4.36,4.36,0,0,0,3.4-1.7,4.08,4.08,0,0,0,3.4,1.7,4.19,4.19,0,0,0,4.1-3.4H85.5a4.27,4.27,0,0,0,4.1,3.4,4.23,4.23,0,0,0,4.2-4.2v-.1h3.5a1.69,1.69,0,0,0,1.7-1.7v-7A2.84,2.84,0,0,0,98.3,160.1Zm-47.7,9.7H48.8a.1.1,0,0,1-.1-.1V168h2.7A3.7,3.7,0,0,0,50.6,169.8Zm4.1,3.4a2.6,2.6,0,0,1,0-5.2h0a2.6,2.6,0,1,1,0,5.2Zm6.8,0a2.6,2.6,0,0,1,0-5.2h0a2.65,2.65,0,0,1,2.6,2.6A2.58,2.58,0,0,1,61.5,173.2Zm24-3.4H65.7a3.7,3.7,0,0,0-.8-1.8H80.4a.8.8,0,0,0,0-1.6H46.2a.1.1,0,0,1-.1-.1V147.5a.1.1,0,0,1,.1-.1H85.4a.1.1,0,0,1,.1.1v18.8H83.7a.8.8,0,0,0,0,1.6h2.7A6.63,6.63,0,0,0,85.5,169.8Zm10.2-10.3H90.6a.1.1,0,0,1-.1-.1V156h4Zm-6,13.7a2.6,2.6,0,0,1,0-5.2h0a2.6,2.6,0,1,1,0,5.2Zm7.7-4.3h0l-3.9.1a4.18,4.18,0,0,0-3.9-2.6H87V152.7h0a.1.1,0,0,1,.1-.1h6.2l.6,1.8H89.6a.86.86,0,0,0-.8.8v4.3a1.69,1.69,0,0,0,1.7,1.7H97l.1.1a.86.86,0,0,1,.3.6v1.9h-.9a.8.8,0,1,0,0,1.6h.9Z"></path><path d="M82.8,162.9H48.7a.8.8,0,1,0,0,1.6H82.8a.86.86,0,0,0,.8-.8A.79.79,0,0,0,82.8,162.9Z"></path><path d="M588.9,257.6H516.3a1.69,1.69,0,0,0-1.7,1.7V280h-3.5V264.5a1.69,1.69,0,0,0-1.7-1.7H495.6a1.71,1.71,0,0,0-1.6,1.1l-6.9,17.3a1.27,1.27,0,0,0-.1.6v17.3a1.69,1.69,0,0,0,1.7,1.7h6.1a6.82,6.82,0,0,0,5.9,3.5,6.91,6.91,0,0,0,6.9-6.9h6.9a6.9,6.9,0,1,0,13.8,0h5.2a1.69,1.69,0,0,0,1.7-1.7V283.6h3.5v12a2.66,2.66,0,0,0,.3,1.2,1.75,1.75,0,0,0,1.4.7h5.2a6.9,6.9,0,0,0,13.8,0h10.4a6.9,6.9,0,1,0,13.8,0h5.2a1.69,1.69,0,0,0,1.7-1.7V259.5A1.57,1.57,0,0,0,588.9,257.6ZM494,273.2h6.8v6.9h-9.5Zm6.8,27.6a3.5,3.5,0,1,1,3.5-3.5A3.48,3.48,0,0,1,500.8,300.8Zm20.8,0a3.5,3.5,0,1,1,3.5-3.5A3.54,3.54,0,0,1,521.6,300.8ZM531.9,287h-1.7a1.7,1.7,0,0,0,0,3.4h1.7v3.5h-4.4a6.82,6.82,0,0,0-5.9-3.5,6.7,6.7,0,0,0-5.9,3.5h-8.8a6.82,6.82,0,0,0-5.9-3.5,6.91,6.91,0,0,0-6.9,6.9h-3.5v-6.9h1.7a1.7,1.7,0,0,0,0-3.4h-1.7v-3.5h12.1a1.69,1.69,0,0,0,1.7-1.7V271.4a1.69,1.69,0,0,0-1.7-1.7h-7.1l1.4-3.5h10.9v15.5a1.69,1.69,0,0,0,1.7,1.7h22.5l-.2,3.6Zm20.8,13.8a3.5,3.5,0,1,1,3.5-3.5A3.54,3.54,0,0,1,552.7,300.8Zm24.1,0a3.5,3.5,0,1,1,3.5-3.5A3.48,3.48,0,0,1,576.8,300.8ZM587.2,287h-1.7a1.7,1.7,0,0,0,0,3.4h1.7v3.5h-4.4a6.82,6.82,0,0,0-5.9-3.5,6.7,6.7,0,0,0-5.9,3.5H558.7a6.81,6.81,0,0,0-11.9,0h-4.4V283.5h44.9l-.1,3.5Zm0-6.9H518.1v-19h69.1Z"></path><path d="M284.1,95.1h-1.2V93.9a.6.6,0,1,0-1.2,0v1.2h-1.2a.6.6,0,1,0,0,1.2h1.2v1.2a.6.6,0,0,0,1.2,0V96.3h1.2a.6.6,0,0,0,0-1.2Z"></path><path d="M300.6,95.1h-3.7A14.77,14.77,0,0,0,282.8,81V77.3a.6.6,0,1,0-1.2,0V81a14.77,14.77,0,0,0-14.1,14.1h-3.7a.6.6,0,1,0,0,1.2h3.7a14.77,14.77,0,0,0,14.1,14.1v3.7a.6.6,0,0,0,1.2,0v-3.7a14.77,14.77,0,0,0,14.1-14.1h3.7a.6.6,0,0,0,0-1.2ZM292,96.3h3.7a13.45,13.45,0,0,1-12.8,12.8v-3.7a.6.6,0,1,0-1.2,0v3.7a13.45,13.45,0,0,1-12.8-12.8h3.7a.6.6,0,0,0,0-1.2h-3.7a13.45,13.45,0,0,1,12.8-12.8V86a.6.6,0,0,0,1.2,0V82.3a13.45,13.45,0,0,1,12.8,12.8H292a.65.65,0,0,0-.6.6A.58.58,0,0,0,292,96.3Z"></path><path d="M282.3,89a6.7,6.7,0,1,0,6.7,6.7A6.7,6.7,0,0,0,282.3,89Zm0,12.2a5.5,5.5,0,1,1,5.5-5.5A5.48,5.48,0,0,1,282.3,101.2Z"></path><path d="M211.5,168.7a5,5,0,0,0-5-5,5,5,0,0,0-5,5,5,5,0,0,0,5,5A5.15,5.15,0,0,0,211.5,168.7Zm-8.8,0a3.8,3.8,0,1,1,3.8,3.8A3.93,3.93,0,0,1,202.7,168.7Z"></path><path d="M226.4,196.8l-4.8-12.5a.66.66,0,0,0-.5-.4H212c.1-.1.1-.2.2-.3,3.5-5.8,5.2-10.8,5.2-15a10.9,10.9,0,1,0-21.8,0c0,4.2,1.7,9.2,5.2,15,.1.1.1.2.2.3h-9c-.2,0-.5.2-.5.4l-4.8,12.5a.67.67,0,0,0,.3.8h38.9a.65.65,0,0,0,.6-.6c-.1,0-.1-.1-.1-.2Zm-29.6-28.1a9.7,9.7,0,0,1,19.4,0h0c.1,8.3-7.7,18.6-9.7,21.1-2-2.5-9.7-12.8-9.7-21.1Zm9.3,22.3a.62.62,0,0,0,.8.1l.1-.1a50.47,50.47,0,0,0,4.3-6h9.4l.8,2-18.3,6.5-6.5-8.5h5.2a35.87,35.87,0,0,0,4.2,6Zm-3,3.8h0l10.9-3.9,4.2,5.5H198.5Zm-10.7-9.7h2.7L202,194l-6.9,2.5h-7Zm27.3,11.3-4.6-5.9,6.7-2.4,3.2,8.3Z"></path></svg>