<svg xmlns="http://www.w3.org/2000/svg" xmlns:xlink="http://www.w3.org/1999/xlink" viewBox="0 0 700 500"><defs><style>.cls-1,.cls-128,.cls-4,.cls-5{fill:none;}.cls-2{isolation:isolate;}.cls-3{clip-path:url(#clip-path);}.cls-4{stroke:#e0dcfa;stroke-width:10px;}.cls-128,.cls-129,.cls-13,.cls-4,.cls-5{stroke-miterlimit:10;}.cls-5{stroke:#d8c9f3;stroke-width:20px;}.cls-6{fill:#eff3fe;}.cls-7{fill:url(#Degradado_sin_nombre_58);}.cls-8{fill:#541752;}.cls-9{fill:#7f2e84;}.cls-10{fill:#50114a;}.cls-11,.cls-12{fill:#e9b8b0;}.cls-12{opacity:0.7;}.cls-109,.cls-12,.cls-37,.cls-45,.cls-67,.cls-95{mix-blend-mode:screen;}.cls-13{fill:#621c5f;stroke:#621c5f;}.cls-128,.cls-13{stroke-width:2px;}.cls-14{fill:#f76549;}.cls-15{fill:#6be5ab;}.cls-16{fill:#f5e1d9;}.cls-17{fill:#e8b7af;}.cls-18{fill:#eef2fd;}.cls-19{fill:#ee2a33;}.cls-20{fill:url(#New_Gradient_Swatch_copy_25);}.cls-21{fill:url(#New_Gradient_Swatch_copy_31);}.cls-124,.cls-127,.cls-22,.cls-75,.cls-84,.cls-89{mix-blend-mode:color-dodge;}.cls-22{fill:url(#Radial_Gradient_1);}.cls-23{opacity:0;}.cls-24{opacity:0.02;}.cls-25{opacity:0.04;}.cls-26{opacity:0.05;}.cls-27{opacity:0.07;}.cls-28{opacity:0.09;}.cls-29{opacity:0.11;}.cls-30{opacity:0.13;}.cls-31{opacity:0.15;}.cls-32{opacity:0.16;}.cls-33{opacity:0.18;}.cls-34{opacity:0.2;}.cls-35{fill:url(#New_Gradient_Swatch_copy_42);}.cls-36{fill:url(#New_Gradient_Swatch_copy_25-2);}.cls-37{fill:url(#Radial_Gradient_1-2);}.cls-38{fill:url(#New_Gradient_Swatch_copy_35);}.cls-39{fill:url(#linear-gradient);}.cls-102,.cls-40,.cls-48,.cls-70,.cls-74,.cls-77,.cls-80,.cls-99{mix-blend-mode:multiply;}.cls-40{fill:url(#linear-gradient-2);}.cls-41{fill:url(#linear-gradient-3);}.cls-42{fill:url(#New_Gradient_Swatch_copy_35-2);}.cls-43{fill:url(#New_Gradient_Swatch_copy_42-2);}.cls-44{fill:url(#New_Gradient_Swatch_copy_25-3);}.cls-45{fill:url(#Radial_Gradient_1-3);}.cls-46{fill:url(#New_Gradient_Swatch_copy_35-3);}.cls-47{fill:url(#linear-gradient-4);}.cls-48{fill:url(#linear-gradient-5);}.cls-49{fill:url(#linear-gradient-6);}.cls-50{fill:url(#New_Gradient_Swatch_copy_35-4);}.cls-51{fill:url(#linear-gradient-7);}.cls-52{fill:url(#linear-gradient-8);}.cls-53{fill:url(#linear-gradient-9);}.cls-54{fill:url(#New_Gradient_Swatch_copy_35-5);}.cls-55{fill:url(#linear-gradient-10);}.cls-56{fill:url(#New_Gradient_Swatch_copy_35-6);}.cls-57{fill:url(#New_Gradient_Swatch_copy_25-4);}.cls-58{fill:url(#New_Gradient_Swatch_copy_25-5);}.cls-59{fill:url(#New_Gradient_Swatch_copy_25-6);}.cls-60{fill:url(#New_Gradient_Swatch_copy_25-7);}.cls-61{fill:url(#New_Gradient_Swatch_copy_25-8);}.cls-62{fill:url(#New_Gradient_Swatch_copy_25-9);}.cls-63{fill:url(#New_Gradient_Swatch_copy_25-10);}.cls-64{fill:url(#New_Gradient_Swatch_copy_25-11);}.cls-65{fill:url(#New_Gradient_Swatch_copy_42-3);}.cls-66{fill:url(#New_Gradient_Swatch_copy_25-12);}.cls-67{fill:url(#Radial_Gradient_1-4);}.cls-68{fill:url(#New_Gradient_Swatch_copy_35-7);}.cls-69{fill:url(#linear-gradient-11);}.cls-70{fill:url(#linear-gradient-12);}.cls-71{fill:url(#linear-gradient-13);}.cls-72{fill:url(#New_Gradient_Swatch_copy_35-8);}.cls-73{fill:url(#New_Gradient_Swatch_copy_35-9);}.cls-74{fill:url(#New_Gradient_Swatch_copy_35-10);}.cls-75{fill:url(#Radial_Gradient_1-5);}.cls-76{fill:url(#New_Gradient_Swatch_copy_35-11);}.cls-77{fill:url(#New_Gradient_Swatch_copy_35-12);}.cls-78{fill:url(#New_Gradient_Swatch_copy_35-13);}.cls-79{fill:url(#New_Gradient_Swatch_copy_35-14);}.cls-80{fill:#a56ef4;}.cls-81{fill:url(#New_Gradient_Swatch_copy_35-15);}.cls-82{fill:url(#linear-gradient-14);}.cls-83{fill:url(#New_Gradient_Swatch_copy_35-16);}.cls-84{fill:url(#Radial_Gradient_1-6);}.cls-85{fill:url(#New_Gradient_Swatch_copy_25-13);}.cls-86{fill:url(#New_Gradient_Swatch_copy_25-14);}.cls-87{fill:url(#New_Gradient_Swatch_copy_25-15);}.cls-88{opacity:0.5;fill:url(#New_Gradient_Swatch_copy_35-17);}.cls-90{fill:url(#Radial_Gradient_1-7);}.cls-91{fill:url(#Radial_Gradient_1-8);}.cls-92{fill:url(#Radial_Gradient_1-9);}.cls-93{fill:url(#Radial_Gradient_1-10);}.cls-94{fill:url(#New_Gradient_Swatch_copy_25-16);}.cls-95{fill:url(#linear-gradient-15);}.cls-96{fill:url(#New_Gradient_Swatch_copy_25-17);}.cls-97{fill:url(#New_Gradient_Swatch_copy_25-18);}.cls-98{fill:url(#New_Gradient_Swatch_copy_25-19);}.cls-100{fill:#b086cc;}.cls-101{fill:url(#New_Gradient_Swatch_copy_35-18);}.cls-102{fill:url(#linear-gradient-16);}.cls-103{fill:url(#linear-gradient-17);}.cls-104{fill:url(#New_Gradient_Swatch_copy_42-4);}.cls-105{fill:url(#New_Gradient_Swatch_copy_25-20);}.cls-106{fill:url(#New_Gradient_Swatch_copy_35-19);}.cls-107{fill:url(#New_Gradient_Swatch_copy_35-20);}.cls-108{fill:url(#New_Gradient_Swatch_copy_22);}.cls-109{fill:url(#Radial_Gradient_1-11);}.cls-110{fill:url(#New_Gradient_Swatch_copy_25-21);}.cls-111{fill:url(#New_Gradient_Swatch_copy_23);}.cls-112{fill:url(#New_Gradient_Swatch_copy_35-21);}.cls-113{fill:url(#New_Gradient_Swatch_copy_35-22);}.cls-114{fill:url(#New_Gradient_Swatch_copy_35-23);}.cls-115{fill:url(#New_Gradient_Swatch_copy_35-24);}.cls-116{fill:url(#Radial_Gradient_1-12);}.cls-117{fill:url(#Radial_Gradient_1-13);}.cls-118{fill:url(#linear-gradient-18);}.cls-119{fill:url(#New_Gradient_Swatch_copy_35-25);}.cls-120{fill:url(#radial-gradient);}.cls-121{fill:url(#radial-gradient-2);}.cls-122{fill:url(#New_Gradient_Swatch_copy_25-22);}.cls-123{fill:url(#New_Gradient_Swatch_copy_31-2);}.cls-124{fill:url(#Radial_Gradient_1-14);}.cls-125{fill:url(#linear-gradient-19);}.cls-126{fill:url(#New_Gradient_Swatch_copy_35-26);}.cls-127{fill:url(#Radial_Gradient_1-15);}.cls-128,.cls-129{stroke:#f76549;}.cls-129{fill:#fff;}</style><clipPath id="clip-path"><rect class="cls-1" x="7.55" y="35.85" width="685.45" height="453.15" rx="12.25" ry="12.25"></rect></clipPath><radialGradient id="Degradado_sin_nombre_58" cx="317.77" cy="275.37" r="512.76" gradientTransform="translate(59.42 138.96) scale(0.91 0.48)" gradientUnits="userSpaceOnUse"><stop offset="0" stop-color="#fff" stop-opacity="0"></stop><stop offset="0.2" stop-color="#fff" stop-opacity="0.01"></stop><stop offset="0.32" stop-color="#fff" stop-opacity="0.04"></stop><stop offset="0.43" stop-color="#fff" stop-opacity="0.1"></stop><stop offset="0.52" stop-color="#fff" stop-opacity="0.18"></stop><stop offset="0.61" stop-color="#fff" stop-opacity="0.29"></stop><stop offset="0.69" stop-color="#fff" stop-opacity="0.42"></stop><stop offset="0.77" stop-color="#fff" stop-opacity="0.58"></stop><stop offset="0.84" stop-color="#fff" stop-opacity="0.76"></stop><stop offset="0.91" stop-color="#fff" stop-opacity="0.95"></stop><stop offset="0.92" stop-color="#fff"></stop></radialGradient><linearGradient id="New_Gradient_Swatch_copy_25" x1="198.44" y1="195.14" x2="208.82" y2="195.14" gradientUnits="userSpaceOnUse"><stop offset="0" stop-color="#25054d"></stop><stop offset="1" stop-color="#45108a"></stop></linearGradient><radialGradient id="New_Gradient_Swatch_copy_31" cx="200.65" cy="192.07" r="10.66" gradientUnits="userSpaceOnUse"><stop offset="0.01" stop-color="#fff"></stop><stop offset="0.16" stop-color="#e6d7f0"></stop><stop offset="0.28" stop-color="#d7bde7"></stop><stop offset="0.36" stop-color="#d1b4e3"></stop><stop offset="0.48" stop-color="#c4a4dc"></stop><stop offset="0.71" stop-color="#a17bc9"></stop><stop offset="0.72" stop-color="#9f79c8"></stop><stop offset="0.99" stop-color="#9f79c8"></stop><stop offset="1" stop-color="#9f79c8"></stop></radialGradient><radialGradient id="Radial_Gradient_1" cx="199.73" cy="192.36" r="3.3" gradientUnits="userSpaceOnUse"><stop offset="0" stop-color="#fff"></stop><stop offset="1"></stop></radialGradient><linearGradient id="New_Gradient_Swatch_copy_42" x1="745.87" y1="161.05" x2="721.23" y2="128.03" gradientTransform="matrix(-1, 0, 0, 1, 1219.68, 0)" gradientUnits="userSpaceOnUse"><stop offset="0" stop-color="#25054d"></stop><stop offset="0.5" stop-color="#45108a"></stop><stop offset="1" stop-color="#25054d"></stop></linearGradient><linearGradient id="New_Gradient_Swatch_copy_25-2" x1="482.24" y1="143.96" x2="520.31" y2="161.77" gradientTransform="translate(372.58 -351.64) rotate(59.69)" xlink:href="#New_Gradient_Swatch_copy_25"></linearGradient><radialGradient id="Radial_Gradient_1-2" cx="729.83" cy="148.4" r="15.17" gradientTransform="matrix(-1, 0, 0, 1, 1219.68, 0)" xlink:href="#Radial_Gradient_1"></radialGradient><linearGradient id="New_Gradient_Swatch_copy_35" x1="735.71" y1="127.89" x2="703.24" y2="145.67" gradientTransform="matrix(-1, 0, 0, 1, 1221.24, 17.68)" gradientUnits="userSpaceOnUse"><stop offset="0" stop-color="#9f79c8"></stop><stop offset="0.14" stop-color="#a580cb"></stop><stop offset="0.33" stop-color="#b492d3"></stop><stop offset="0.55" stop-color="#cdb0e1"></stop><stop offset="0.58" stop-color="#d1b4e3"></stop><stop offset="0.76" stop-color="#dbc4e9"></stop><stop offset="1" stop-color="#ebdef3"></stop></linearGradient><linearGradient id="linear-gradient" x1="731.01" y1="161.17" x2="718.02" y2="140.51" gradientTransform="matrix(-1, 0, 0, 1, 1219.68, 0)" gradientUnits="userSpaceOnUse"><stop offset="0.01" stop-color="#c1a1d5"></stop><stop offset="0.23" stop-color="#c9abdc"></stop><stop offset="0.36" stop-color="#d1b4e3"></stop><stop offset="0.43" stop-color="#b395d6"></stop><stop offset="0.49" stop-color="#9c7dcb"></stop><stop offset="0.56" stop-color="#8e6ec5"></stop><stop offset="0.61" stop-color="#8969c3"></stop><stop offset="0.76" stop-color="#9471c6"></stop><stop offset="1" stop-color="#b086cc"></stop></linearGradient><linearGradient id="linear-gradient-2" x1="476.07" y1="142.44" x2="499.98" y2="154.84" gradientUnits="userSpaceOnUse"><stop offset="0" stop-color="#8770b8"></stop><stop offset="1" stop-color="#fff"></stop></linearGradient><linearGradient id="linear-gradient-3" x1="494.56" y1="143.53" x2="488.88" y2="155.05" gradientTransform="matrix(1, 0, 0, 1, 0, 0)" xlink:href="#linear-gradient"></linearGradient><linearGradient id="New_Gradient_Swatch_copy_35-2" x1="479.42" y1="143.07" x2="499.67" y2="153.57" gradientTransform="matrix(1, 0, 0, 1, 0, 0)" xlink:href="#New_Gradient_Swatch_copy_35"></linearGradient><linearGradient id="New_Gradient_Swatch_copy_42-2" x1="776" y1="178.8" x2="751.35" y2="145.78" xlink:href="#New_Gradient_Swatch_copy_42"></linearGradient><linearGradient id="New_Gradient_Swatch_copy_25-3" x1="452.12" y1="161.71" x2="490.19" y2="179.52" gradientTransform="translate(372.98 -316.85) rotate(59.69)" xlink:href="#New_Gradient_Swatch_copy_25"></linearGradient><radialGradient id="Radial_Gradient_1-3" cx="759.96" cy="166.15" r="15.17" gradientTransform="matrix(-1, 0, 0, 1, 1219.68, 0)" xlink:href="#Radial_Gradient_1"></radialGradient><linearGradient id="New_Gradient_Swatch_copy_35-3" x1="765.83" y1="145.64" x2="733.37" y2="163.42" xlink:href="#New_Gradient_Swatch_copy_35"></linearGradient><linearGradient id="linear-gradient-4" x1="761.13" y1="178.92" x2="748.15" y2="158.26" xlink:href="#linear-gradient"></linearGradient><linearGradient id="linear-gradient-5" x1="445.94" y1="160.19" x2="469.85" y2="172.59" xlink:href="#linear-gradient-2"></linearGradient><linearGradient id="linear-gradient-6" x1="464.44" y1="161.28" x2="458.76" y2="172.8" gradientTransform="matrix(1, 0, 0, 1, 0, 0)" xlink:href="#linear-gradient"></linearGradient><linearGradient id="New_Gradient_Swatch_copy_35-4" x1="449.29" y1="160.82" x2="469.54" y2="171.32" gradientTransform="matrix(1, 0, 0, 1, 0, 0)" xlink:href="#New_Gradient_Swatch_copy_35"></linearGradient><linearGradient id="linear-gradient-7" x1="395.43" y1="188.83" x2="495.96" y2="158.73" gradientUnits="userSpaceOnUse"><stop offset="0.02" stop-color="#744ca1"></stop><stop offset="0.53" stop-color="#9f79c8"></stop><stop offset="0.64" stop-color="#a580cb"></stop><stop offset="0.8" stop-color="#b492d3"></stop><stop offset="0.98" stop-color="#cdb0e1"></stop><stop offset="1" stop-color="#d1b4e3"></stop></linearGradient><linearGradient id="linear-gradient-8" x1="359.84" y1="198.66" x2="403.78" y2="188.81" xlink:href="#linear-gradient-7"></linearGradient><linearGradient id="linear-gradient-9" x1="446.5" y1="92.94" x2="397.91" y2="185.55" xlink:href="#linear-gradient-7"></linearGradient><linearGradient id="New_Gradient_Swatch_copy_35-5" x1="515.53" y1="123.41" x2="528.15" y2="119.63" gradientTransform="matrix(1, 0, 0, 1, 0, 0)" xlink:href="#New_Gradient_Swatch_copy_35"></linearGradient><linearGradient id="linear-gradient-10" x1="496.05" y1="115.22" x2="494.72" y2="140.22" xlink:href="#linear-gradient-7"></linearGradient><linearGradient id="New_Gradient_Swatch_copy_35-6" x1="500.16" y1="96.94" x2="496.61" y2="103.71" gradientTransform="matrix(1, 0, 0, 1, 0, 0)" xlink:href="#New_Gradient_Swatch_copy_35"></linearGradient><linearGradient id="New_Gradient_Swatch_copy_25-4" x1="490.84" y1="134" x2="520.61" y2="127.32" xlink:href="#New_Gradient_Swatch_copy_25"></linearGradient><linearGradient id="New_Gradient_Swatch_copy_25-5" x1="452.53" y1="140.47" x2="568.2" y2="185.14" xlink:href="#New_Gradient_Swatch_copy_25"></linearGradient><linearGradient id="New_Gradient_Swatch_copy_25-6" x1="424.59" y1="172.25" x2="454.36" y2="165.57" xlink:href="#New_Gradient_Swatch_copy_25"></linearGradient><linearGradient id="New_Gradient_Swatch_copy_25-7" x1="449.97" y1="125.3" x2="410.1" y2="201.28" xlink:href="#New_Gradient_Swatch_copy_25"></linearGradient><linearGradient id="New_Gradient_Swatch_copy_25-8" x1="425.95" y1="175.89" x2="442.06" y2="172.28" xlink:href="#New_Gradient_Swatch_copy_25"></linearGradient><linearGradient id="New_Gradient_Swatch_copy_25-9" x1="401.15" y1="191.25" x2="503.17" y2="160.7" xlink:href="#New_Gradient_Swatch_copy_25"></linearGradient><linearGradient id="New_Gradient_Swatch_copy_25-10" x1="381.95" y1="201.11" x2="403.68" y2="196.24" xlink:href="#New_Gradient_Swatch_copy_25"></linearGradient><linearGradient id="New_Gradient_Swatch_copy_25-11" x1="455.98" y1="97.64" x2="408.94" y2="187.3" xlink:href="#New_Gradient_Swatch_copy_25"></linearGradient><linearGradient id="New_Gradient_Swatch_copy_42-3" x1="864.75" y1="230.43" x2="840.1" y2="197.41" xlink:href="#New_Gradient_Swatch_copy_42"></linearGradient><linearGradient id="New_Gradient_Swatch_copy_25-12" x1="363.37" y1="213.34" x2="401.44" y2="231.14" gradientTransform="translate(373.59 -214.66) rotate(59.69)" xlink:href="#New_Gradient_Swatch_copy_25"></linearGradient><radialGradient id="Radial_Gradient_1-4" cx="848.71" cy="217.77" r="15.17" gradientTransform="matrix(-1, 0, 0, 1, 1219.68, 0)" xlink:href="#Radial_Gradient_1"></radialGradient><linearGradient id="New_Gradient_Swatch_copy_35-7" x1="854.58" y1="197.26" x2="822.12" y2="215.04" xlink:href="#New_Gradient_Swatch_copy_35"></linearGradient><linearGradient id="linear-gradient-11" x1="849.88" y1="230.55" x2="836.9" y2="209.88" xlink:href="#linear-gradient"></linearGradient><linearGradient id="linear-gradient-12" x1="357.19" y1="211.81" x2="381.1" y2="224.21" xlink:href="#linear-gradient-2"></linearGradient><linearGradient id="linear-gradient-13" x1="375.69" y1="212.91" x2="370.01" y2="224.42" gradientTransform="matrix(1, 0, 0, 1, 0, 0)" xlink:href="#linear-gradient"></linearGradient><linearGradient id="New_Gradient_Swatch_copy_35-8" x1="360.54" y1="212.44" x2="380.79" y2="222.94" gradientTransform="matrix(1, 0, 0, 1, 0, 0)" xlink:href="#New_Gradient_Swatch_copy_35"></linearGradient><linearGradient id="New_Gradient_Swatch_copy_35-9" x1="310.5" y1="242.82" x2="441.77" y2="203.51" gradientTransform="matrix(1, 0, 0, 1, 0, 0)" xlink:href="#New_Gradient_Swatch_copy_35"></linearGradient><linearGradient id="New_Gradient_Swatch_copy_35-10" x1="341.23" y1="229.81" x2="353.12" y2="226.25" gradientTransform="matrix(1, 0, 0, 1, 0, 0)" xlink:href="#New_Gradient_Swatch_copy_35"></linearGradient><radialGradient id="Radial_Gradient_1-5" cx="350.32" cy="228.17" r="9.4" xlink:href="#Radial_Gradient_1"></radialGradient><linearGradient id="New_Gradient_Swatch_copy_35-11" x1="315.08" y1="241.06" x2="327.58" y2="262.68" gradientTransform="matrix(1, 0, 0, 1, 0, 0)" xlink:href="#New_Gradient_Swatch_copy_35"></linearGradient><linearGradient id="New_Gradient_Swatch_copy_35-12" x1="278.18" y1="241.29" x2="339.18" y2="241.54" gradientTransform="matrix(1, 0, 0, 1, 0, 0)" xlink:href="#New_Gradient_Swatch_copy_35"></linearGradient><linearGradient id="New_Gradient_Swatch_copy_35-13" x1="209.2" y1="255.92" x2="348.8" y2="224.63" gradientTransform="matrix(1, 0, 0, 1, 0, 0)" xlink:href="#New_Gradient_Swatch_copy_35"></linearGradient><linearGradient id="New_Gradient_Swatch_copy_35-14" x1="362.82" y1="107.19" x2="298.83" y2="229.16" gradientTransform="matrix(1, 0, 0, 1, 0, 0)" xlink:href="#New_Gradient_Swatch_copy_35"></linearGradient><linearGradient id="New_Gradient_Swatch_copy_35-15" x1="349.34" y1="193.01" x2="787.32" y2="61.87" gradientTransform="matrix(1, 0, 0, 1, 0, 0)" xlink:href="#New_Gradient_Swatch_copy_35"></linearGradient><linearGradient id="linear-gradient-14" x1="267.24" y1="164.67" x2="212.49" y2="261.55" gradientUnits="userSpaceOnUse"><stop offset="0.01" stop-color="#c1a1d5"></stop><stop offset="0.13" stop-color="#c3a4d6"></stop><stop offset="0.21" stop-color="#c9adda"></stop><stop offset="0.29" stop-color="#d4bde2"></stop><stop offset="0.36" stop-color="#e2d4ec"></stop><stop offset="0.43" stop-color="#f5f0f8"></stop><stop offset="0.45" stop-color="#fff"></stop><stop offset="0.51" stop-color="#f5eef9"></stop><stop offset="0.62" stop-color="#e1cfed"></stop><stop offset="0.71" stop-color="#d5bbe6"></stop><stop offset="0.78" stop-color="#d1b4e3"></stop><stop offset="0.78" stop-color="#cfb2e2"></stop><stop offset="0.86" stop-color="#be9ad6"></stop><stop offset="0.94" stop-color="#b48bcf"></stop><stop offset="1" stop-color="#b086cc"></stop></linearGradient><linearGradient id="New_Gradient_Swatch_copy_35-16" x1="255.45" y1="241.82" x2="405.09" y2="197.01" gradientTransform="matrix(1, 0, 0, 1, 0, 0)" xlink:href="#New_Gradient_Swatch_copy_35"></linearGradient><radialGradient id="Radial_Gradient_1-6" cx="274.83" cy="228.2" r="28.77" xlink:href="#Radial_Gradient_1"></radialGradient><linearGradient id="New_Gradient_Swatch_copy_25-13" x1="260.48" y1="227.31" x2="324.65" y2="208.1" xlink:href="#New_Gradient_Swatch_copy_25"></linearGradient><linearGradient id="New_Gradient_Swatch_copy_25-14" x1="165.86" y1="255.69" x2="280.3" y2="230.04" xlink:href="#New_Gradient_Swatch_copy_25"></linearGradient><linearGradient id="New_Gradient_Swatch_copy_25-15" x1="210.34" y1="244.49" x2="279.84" y2="253.83" xlink:href="#New_Gradient_Swatch_copy_25"></linearGradient><linearGradient id="New_Gradient_Swatch_copy_35-17" x1="210.43" y1="244.62" x2="279.65" y2="253.91" gradientTransform="matrix(1, 0, 0, 1, 0, 0)" xlink:href="#New_Gradient_Swatch_copy_35"></linearGradient><radialGradient id="Radial_Gradient_1-7" cx="220.77" cy="253.76" r="10.41" xlink:href="#Radial_Gradient_1"></radialGradient><radialGradient id="Radial_Gradient_1-8" cx="221.3" cy="249.13" r="12.63" xlink:href="#Radial_Gradient_1"></radialGradient><radialGradient id="Radial_Gradient_1-9" cx="221.58" cy="244.36" r="13.28" xlink:href="#Radial_Gradient_1"></radialGradient><radialGradient id="Radial_Gradient_1-10" cx="221.58" cy="239.36" r="13.28" xlink:href="#Radial_Gradient_1"></radialGradient><linearGradient id="New_Gradient_Swatch_copy_25-16" x1="224.82" y1="236.38" x2="233.13" y2="195.04" xlink:href="#New_Gradient_Swatch_copy_25"></linearGradient><linearGradient id="linear-gradient-15" x1="235.63" y1="252.22" x2="224.3" y2="187.55" gradientUnits="userSpaceOnUse"><stop offset="0" stop-color="#4916a1"></stop><stop offset="0.03" stop-color="#451599"></stop><stop offset="0.28" stop-color="#2d0d63"></stop><stop offset="0.5" stop-color="#190838"></stop><stop offset="0.71" stop-color="#0c0319"></stop><stop offset="0.88" stop-color="#030107"></stop><stop offset="1"></stop></linearGradient><linearGradient id="New_Gradient_Swatch_copy_25-17" x1="224.23" y1="228.9" x2="235.98" y2="200.9" xlink:href="#New_Gradient_Swatch_copy_25"></linearGradient><linearGradient id="New_Gradient_Swatch_copy_25-18" x1="218.33" y1="212.53" x2="241.67" y2="183.53" xlink:href="#New_Gradient_Swatch_copy_25"></linearGradient><linearGradient id="New_Gradient_Swatch_copy_25-19" x1="235.64" y1="226.46" x2="258.98" y2="197.46" xlink:href="#New_Gradient_Swatch_copy_25"></linearGradient><linearGradient id="New_Gradient_Swatch_copy_35-18" x1="276.77" y1="229.68" x2="290.48" y2="231.95" gradientTransform="matrix(1, 0, 0, 1, 0, 0)" xlink:href="#New_Gradient_Swatch_copy_35"></linearGradient><linearGradient id="linear-gradient-16" x1="271.9" y1="251.74" x2="295.8" y2="241.02" xlink:href="#linear-gradient-2"></linearGradient><linearGradient id="linear-gradient-17" x1="292.38" y1="250.45" x2="303.38" y2="281.58" xlink:href="#linear-gradient-7"></linearGradient><linearGradient id="New_Gradient_Swatch_copy_42-4" x1="545.62" y1="282.56" x2="520.87" y2="249.39" gradientTransform="matrix(-1, 0, 0, 1, 810.28, 0)" xlink:href="#New_Gradient_Swatch_copy_42"></linearGradient><linearGradient id="New_Gradient_Swatch_copy_25-20" x1="270.7" y1="267.77" x2="318.75" y2="276.98" gradientTransform="translate(373.71 -110.91) rotate(59.69)" xlink:href="#New_Gradient_Swatch_copy_25"></linearGradient><linearGradient id="New_Gradient_Swatch_copy_35-19" x1="273.45" y1="270.23" x2="293.58" y2="270.23" gradientTransform="translate(373.71 -110.91) rotate(59.69)" xlink:href="#New_Gradient_Swatch_copy_35"></linearGradient><linearGradient id="New_Gradient_Swatch_copy_35-20" x1="273.45" y1="269.73" x2="291.16" y2="269.73" gradientTransform="matrix(1, 0, 0, 1, 0, 0)" xlink:href="#New_Gradient_Swatch_copy_35"></linearGradient><radialGradient id="New_Gradient_Swatch_copy_22" cx="282.31" cy="270.28" r="3.03" gradientUnits="userSpaceOnUse"><stop offset="0" stop-color="#eeebf2"></stop><stop offset="0.58" stop-color="#d4d1d8"></stop><stop offset="0.94" stop-color="#a5a6b9"></stop><stop offset="1" stop-color="#9d9eb3"></stop></radialGradient><radialGradient id="Radial_Gradient_1-11" cx="529.68" cy="269.75" r="15.26" gradientTransform="matrix(-1, 0, 0, 1, 810.28, 0)" xlink:href="#Radial_Gradient_1"></radialGradient><linearGradient id="New_Gradient_Swatch_copy_25-21" x1="274.05" y1="270.04" x2="290.1" y2="270.04" xlink:href="#New_Gradient_Swatch_copy_25"></linearGradient><linearGradient id="New_Gradient_Swatch_copy_23" x1="531.6" y1="274.04" x2="524.83" y2="264.97" gradientTransform="matrix(-1, 0, 0, 1, 810.28, 0)" gradientUnits="userSpaceOnUse"><stop offset="0.01" stop-color="#c1a1d5"></stop><stop offset="0.05" stop-color="#c8abda"></stop><stop offset="0.11" stop-color="#dac6e6"></stop><stop offset="0.2" stop-color="#f7f2f9"></stop><stop offset="0.22" stop-color="#fff"></stop><stop offset="0.25" stop-color="#f9f5fb"></stop><stop offset="0.3" stop-color="#e9dbf2"></stop><stop offset="0.36" stop-color="#d1b4e3"></stop><stop offset="0.43" stop-color="#b395d6"></stop><stop offset="0.49" stop-color="#9c7dcb"></stop><stop offset="0.56" stop-color="#8e6ec5"></stop><stop offset="0.61" stop-color="#8969c3"></stop><stop offset="0.76" stop-color="#9471c6"></stop><stop offset="1" stop-color="#b086cc"></stop></linearGradient><linearGradient id="New_Gradient_Swatch_copy_35-21" x1="279.61" y1="268.97" x2="295.99" y2="275.47" gradientTransform="matrix(1, 0, 0, 1, 0, 0)" xlink:href="#New_Gradient_Swatch_copy_35"></linearGradient><linearGradient id="New_Gradient_Swatch_copy_35-22" x1="274.41" y1="287.78" x2="273" y2="239.64" gradientTransform="matrix(1, 0, 0, 1, 0, 0)" xlink:href="#New_Gradient_Swatch_copy_35"></linearGradient><linearGradient id="New_Gradient_Swatch_copy_35-23" x1="279.39" y1="269.22" x2="257.89" y2="252.22" gradientTransform="matrix(1, 0, 0, 1, 0, 0)" xlink:href="#New_Gradient_Swatch_copy_35"></linearGradient><linearGradient id="New_Gradient_Swatch_copy_35-24" x1="271.17" y1="265.13" x2="355.42" y2="265.88" gradientTransform="matrix(1, 0, 0, 1, 0, 0)" xlink:href="#New_Gradient_Swatch_copy_35"></linearGradient><radialGradient id="Radial_Gradient_1-12" cx="277.62" cy="263.76" r="9.88" xlink:href="#Radial_Gradient_1"></radialGradient><radialGradient id="Radial_Gradient_1-13" cx="294.27" cy="254.43" r="4.96" xlink:href="#Radial_Gradient_1"></radialGradient><linearGradient id="linear-gradient-18" x1="264.73" y1="270.3" x2="192.56" y2="270.3" gradientUnits="userSpaceOnUse"><stop offset="0" stop-color="#a684cc"></stop><stop offset="0.13" stop-color="#9a76c7"></stop><stop offset="0.14" stop-color="#9975c7"></stop><stop offset="0.19" stop-color="#f1edf8"></stop><stop offset="0.2" stop-color="#fff"></stop><stop offset="0.21" stop-color="#f9f5fb"></stop><stop offset="0.23" stop-color="#e9dbf2"></stop><stop offset="0.26" stop-color="#d1b4e3"></stop><stop offset="0.28" stop-color="#cfb2e2"></stop><stop offset="0.55" stop-color="#be9ad6"></stop><stop offset="0.79" stop-color="#b48bcf"></stop><stop offset="1" stop-color="#b086cc"></stop></linearGradient><linearGradient id="New_Gradient_Swatch_copy_35-25" x1="240.49" y1="238.52" x2="225.46" y2="267.16" gradientTransform="matrix(1, 0, 0, 1, 0, 0)" xlink:href="#New_Gradient_Swatch_copy_35"></linearGradient><radialGradient id="radial-gradient" cx="195.77" cy="247.02" r="1.1" gradientUnits="userSpaceOnUse"><stop offset="0" stop-color="#9f19ab"></stop><stop offset="0.01" stop-color="#9c19a8"></stop><stop offset="0.13" stop-color="#73127c"></stop><stop offset="0.25" stop-color="#500d56"></stop><stop offset="0.38" stop-color="#330836"></stop><stop offset="0.52" stop-color="#1c041e"></stop><stop offset="0.66" stop-color="#0c020d"></stop><stop offset="0.81" stop-color="#030003"></stop><stop offset="1"></stop></radialGradient><radialGradient id="radial-gradient-2" cx="228.14" cy="265.65" r="28.36" xlink:href="#radial-gradient"></radialGradient><linearGradient id="New_Gradient_Swatch_copy_25-22" x1="264.5" y1="227.76" x2="272.03" y2="227.76" xlink:href="#New_Gradient_Swatch_copy_25"></linearGradient><radialGradient id="New_Gradient_Swatch_copy_31-2" cx="273.31" cy="225.95" r="10.66" xlink:href="#New_Gradient_Swatch_copy_31"></radialGradient><radialGradient id="Radial_Gradient_1-14" cx="272.65" cy="226.11" r="3.3" xlink:href="#Radial_Gradient_1"></radialGradient><linearGradient id="linear-gradient-19" x1="271.78" y1="150.27" x2="247.9" y2="191.9" gradientUnits="userSpaceOnUse"><stop offset="0.01" stop-color="#c1a1d5"></stop><stop offset="0.11" stop-color="#c8abda"></stop><stop offset="0.29" stop-color="#dac6e6"></stop><stop offset="0.51" stop-color="#f7f2f9"></stop><stop offset="0.57" stop-color="#fff"></stop><stop offset="0.61" stop-color="#f9f5fb"></stop><stop offset="0.69" stop-color="#e9dbf2"></stop><stop offset="0.78" stop-color="#d1b4e3"></stop><stop offset="0.78" stop-color="#cfb2e2"></stop><stop offset="0.86" stop-color="#be9ad6"></stop><stop offset="0.94" stop-color="#b48bcf"></stop><stop offset="1" stop-color="#b086cc"></stop></linearGradient><linearGradient id="New_Gradient_Swatch_copy_35-26" x1="276.38" y1="190.58" x2="355.95" y2="166.75" gradientTransform="matrix(1, 0, 0, 1, 0, 0)" xlink:href="#New_Gradient_Swatch_copy_35"></linearGradient><radialGradient id="Radial_Gradient_1-15" cx="287.52" cy="186.68" r="17.65" xlink:href="#Radial_Gradient_1"></radialGradient></defs><title>GPS-tracker</title><g class="cls-2"><g id="Layer_7" data-name="Layer 7"><g class="cls-3"><line class="cls-4" x1="482.65" y1="281.75" x2="705.15" y2="409.84"></line><line class="cls-4" x1="166.37" y1="408.99" x2="344.13" y2="510.24"></line><line class="cls-4" x1="676.55" y1="393.31" x2="419.29" y2="541.96"></line><line class="cls-4" x1="228.54" y1="114.72" x2="78.31" y2="28.61"></line><polyline class="cls-5" points="697.99 155.44 341.56 359.77 -11.97 158.31"></polyline><line class="cls-5" x1="72.2" y1="204.87" x2="383.73" y2="26.63"></line><line class="cls-5" x1="294.57" y1="335.32" x2="-10.18" y2="509.35"></line><polygon class="cls-6" points="-3.43 215.65 205.42 334.67 -2.84 454.41 -3.43 215.65"></polygon><polygon class="cls-6" points="457.29 36.18 160.84 205.9 340.63 308.83 693 107.09 693 35.85 457.29 36.18"></polygon><polygon class="cls-6" points="-3.43 112.19 70.65 154.6 138.07 116 7.55 41.3 -3.43 41.3 -3.43 112.19"></polygon><polygon class="cls-6" points="692.99 206.92 559.59 283.15 693 359.23 692.99 206.92"></polygon><polygon class="cls-6" points="92.02 503.51 171.82 457.56 251.32 503.4 92.02 503.51"></polygon><polygon class="cls-6" points="561.89 503.51 677.48 437.62 693 446.58 693 503.51 561.89 503.51"></polygon><polygon class="cls-6" points="599.43 393.05 413.5 499.36 256.17 408.93 299.04 384.77 341.59 408.97 484.02 327.14 599.43 393.05"></polygon></g><rect class="cls-7" x="7.5" y="35.85" width="685.2" height="452.99" rx="12.25" ry="12.25"></rect><g class="cls-2"><path class="cls-8" d="M613.44,241.45a1.39,1.39,0,0,1,0,2.63,5,5,0,0,1-4.54,0,1.39,1.39,0,0,1,0-2.63A5,5,0,0,1,613.44,241.45Z"></path><path class="cls-8" d="M641.16,251.16a.82.82,0,0,1,0,1.55,3,3,0,0,1-2.68,0c-.74-.43-.75-1.13,0-1.55A3,3,0,0,1,641.16,251.16Z"></path><path class="cls-8" d="M647.39,262.21c.7.41.7,1.06,0,1.46a2.79,2.79,0,0,1-2.53,0L619.8,249.2a.77.77,0,0,1,0-1.46,2.8,2.8,0,0,1,2.52,0Z"></path><path class="cls-9" d="M688.34,269.05c10.43,6,10.49,15.78.13,21.8L492.92,404.49c-10.36,6-27.21,6-37.64,0l-78-45c-10.43-6-10.48-15.78-.12-21.8L572.74,224c10.36-6,27.22-6,37.64,0Zm-31,35.38L673.65,295,565.71,232.63,392.11,333.51l108,62.32,157.28-91.4M421.1,379.2c5.61,3.23,14.68,3.23,20.25,0s5.54-8.49-.06-11.72-14.69-3.25-20.26,0-5.54,8.5.07,11.74M622.32,247.74a2.8,2.8,0,0,0-2.52,0,.77.77,0,0,0,0,1.46l25.07,14.47a2.79,2.79,0,0,0,2.53,0c.69-.4.69-1.05,0-1.46l-25.07-14.47m-8.88-6.29a5,5,0,0,0-4.54,0,1.39,1.39,0,0,0,0,2.63,5,5,0,0,0,4.54,0,1.39,1.39,0,0,0,0-2.63m27.72,9.71a3,3,0,0,0-2.68,0c-.74.42-.73,1.12,0,1.55a3,3,0,0,0,2.68,0,.82.82,0,0,0,0-1.55"></path><path class="cls-10" d="M696.2,280c0,.15,0,.31,0,.46l0,.41c0,.11,0,.23,0,.35s0,.26-.07.39,0,.24-.07.36l-.09.38c0,.12-.07.24-.11.36l-.12.38c0,.12-.09.23-.13.34s-.11.28-.17.41l-.16.33-.21.4c-.06.11-.11.22-.18.33s-.19.31-.29.47l-.18.28c-.12.18-.25.35-.38.52l-.17.22q-.31.4-.69.81l-.19.2-.61.6-.29.27-.38.34-.37.3-.41.33-.4.29-.45.32-.42.29-.49.3c-.2.13-.4.26-.61.38L492.92,404.49c-.58.34-1.18.65-1.8.94l-.49.23c-.55.26-1.12.5-1.7.73l-.23.09c-.62.24-1.26.46-1.91.66-.45.14-.91.27-1.37.39s-.69.2-1.05.28-1,.22-1.46.32l-1.08.21-.45.08c-.61.1-1.22.18-1.84.26l-.54.06-1.07.09c-.6.05-1.2.1-1.8.12L475,409c-.49,0-1,0-1.46,0l-1.22,0c-.45,0-.9,0-1.35-.08s-.82-.06-1.23-.1-.89-.09-1.33-.15-.79-.1-1.19-.17l-1.41-.24-1.1-.22c-.56-.13-1.11-.26-1.66-.41l-1.06-.28-.56-.18c-.54-.17-1.08-.35-1.62-.55l-.46-.17q-.72-.29-1.41-.6c-.23-.1-.47-.19-.69-.3q-1-.48-2-1l-78-45c-5.25-3-7.87-7-7.86-11l0,13.6c0,4,2.61,7.95,7.86,11l78,45q.94.56,1.95,1l.69.3c.4.18.79.36,1.2.53l.21.07.47.17c.53.2,1.07.38,1.61.56l.57.17.37.12.68.16c.55.15,1.1.29,1.66.41l.44.11.66.11,1.41.25.57.1.62.07,1.33.14.63.08c.2,0,.4,0,.6,0l1.35.07.68,0h2.72c.15,0,.29,0,.43,0,.6,0,1.2-.07,1.8-.11.24,0,.48,0,.72-.05l.35,0,.54-.07c.62-.07,1.23-.16,1.84-.26l.45-.07.22,0c.29,0,.57-.12.86-.18l1.47-.31,1-.29c.46-.12.92-.25,1.37-.39l.3-.08c.54-.18,1.08-.37,1.61-.57l.23-.1c.58-.22,1.15-.47,1.7-.72l.49-.23c.62-.3,1.22-.61,1.8-.95L688.43,304.44a3.37,3.37,0,0,0,.32-.19l.29-.18.49-.31.42-.29.45-.31.4-.3.41-.32.37-.31.38-.33.16-.14.14-.14c.21-.19.41-.39.6-.59l.19-.21a10.11,10.11,0,0,0,.69-.8l0,0,.14-.19.38-.51.18-.29.3-.47.07-.13a1.74,1.74,0,0,0,.1-.19,3.84,3.84,0,0,0,.21-.4c.06-.11.11-.23.16-.34s.11-.27.17-.4l.07-.18.06-.16.12-.39c0-.12.08-.23.11-.35l.09-.39a1.6,1.6,0,0,0,.05-.21l0-.14.06-.4c0-.12,0-.23,0-.35s0-.27,0-.4a1.94,1.94,0,0,0,0-.24v-.23h0Z"></path><polygon class="cls-11" points="565.71 232.63 392.11 333.51 500.06 395.83 657.34 304.43 673.65 294.95 565.71 232.63"></polygon><polygon class="cls-12" points="673.65 294.95 657.34 304.43 420.86 316.81 565.71 232.63 673.65 294.95"></polygon><path class="cls-13" d="M441.29,367.47c5.6,3.23,5.63,8.49.06,11.72s-14.64,3.24-20.25,0-5.64-8.5-.07-11.74S435.67,364.22,441.29,367.47Z"></path><path class="cls-14" d="M440.44,368c5.13,3,5.16,7.78.06,10.74s-13.42,3-18.55,0-5.16-7.78-.06-10.74S435.31,365,440.44,368Z"></path></g><g class="cls-2"><polygon class="cls-15" points="613.34 260.46 590.51 273.82 590.74 247.33 613.34 260.46"></polygon><polygon class="cls-15" points="564.86 261.35 534.88 278.89 518.22 269.2 548.2 251.66 564.86 261.35"></polygon><polygon class="cls-16" points="617.83 263.08 583.31 283.29 583.86 243.32 590.74 247.33 590.51 273.82 613.34 260.46 617.83 263.08"></polygon><polygon class="cls-17" points="629.49 286.21 612.88 295.93 603.18 290.29 619.79 280.57 629.49 286.21"></polygon><polygon class="cls-17" points="564.43 285.74 548.73 294.93 538.74 300.78 524.65 292.59 501.38 279.06 511.37 273.21 534.65 286.74 550.35 277.55 564.43 285.74"></polygon><path class="cls-16" d="M574,288.71,538.35,309.6,486,279.15l79.48-46.52,9.26,5.38Zm-25.31,6.22,15.7-9.19-14.08-8.19-15.7,9.19-23.28-13.53-10,5.85,23.27,13.53,14.09,8.19,10-5.85m-.53-43.27-30,17.54,16.67,9.69,30-17.54-16.66-9.69"></path><polygon class="cls-17" points="664.2 290.04 623 314.15 612.02 320.58 601.33 314.37 577.73 300.64 588.72 294.21 612.32 307.94 653.51 283.82 664.2 290.04"></polygon><path class="cls-16" d="M447.17,331.85a14.63,14.63,0,0,0-4.62-1.63l-22-12.78,58.94-34.5,52.36,30.45-58,34Zm-12.51-13.74L447,325.3l25,14.53L483.67,333l-25-14.54,22.9-13.4,25,14.53,11.66-6.82-25-14.54-12.35-7.18-11.66,6.82-22.9,13.41-11.66,6.82m59.24,4.16-11.26-6.55-5.71,3.34,11.26,6.55,5.71-3.34"></path><polygon class="cls-15" points="493.9 322.27 488.19 325.61 476.93 319.06 482.64 315.72 493.9 322.27"></polygon><path class="cls-18" d="M414.09,321.23l6.48-3.79,22,12.78a18.1,18.1,0,0,0-10.82,1.27Z"></path><path class="cls-16" d="M664.2,290l8.43,4.9-79.48,46.52-48.27-28.07,79.48-46.52,29.15,16.95-41.19,24.12-23.6-13.73-11,6.43,23.6,13.73L612,320.58l11-6.43ZM592,332.32l11-6.44-34.29-19.94-11,6.44L592,332.32m27.84-51.75-16.62,9.72,9.7,5.64,16.61-9.72-9.69-5.64"></path><polygon class="cls-17" points="602.96 325.88 591.96 332.31 557.68 312.38 568.67 305.94 602.96 325.88"></polygon><polygon class="cls-17" points="518.23 312.78 506.57 319.6 481.57 305.07 458.67 318.47 483.67 333.01 472.01 339.83 447.01 325.3 434.65 318.11 446.31 311.29 469.22 297.88 480.88 291.06 493.23 298.24 518.23 312.78"></polygon><polygon class="cls-17" points="581.19 348.51 569.54 355.33 569.5 355.3 560.28 349.94 571.93 343.12 581.15 348.48 581.19 348.51"></polygon><polygon class="cls-16" points="550.19 350.01 572.44 336.98 586.67 345.25 581.15 348.48 571.93 343.12 560.28 349.94 569.5 355.3 564.42 358.28 550.19 350.01"></polygon><polygon class="cls-17" points="523.94 352.13 508.6 361.11 491.45 351.14 506.8 342.16 523.94 352.13"></polygon><polygon class="cls-18" points="586.67 345.25 572.44 336.98 550.19 350.01 564.42 358.28 557.94 362.07 509.67 334 480.36 351.15 473.83 347.36 531.87 313.39 479.51 282.94 485.99 279.15 538.35 309.6 574.04 288.71 574.73 238.01 583.86 243.32 583.31 283.29 617.83 263.08 624.36 266.87 544.88 313.39 593.15 341.46 586.67 345.25"></polygon><polygon class="cls-18" points="445.49 363.95 457.77 356.76 464.29 360.56 452.02 367.74 445.49 363.95"></polygon><path class="cls-16" d="M480.36,351.15,509.67,334l48.27,28.07L549.52,367,530.4,355.88l-24.26,14.2c.57-2.05-.5-4.23-3.2-5.8Zm26.44-9-15.35,9,17.15,10,15.34-9-17.14-10"></path><path class="cls-16" d="M486.87,373.69a17.29,17.29,0,0,0,9.95,1.85l-15.65,9.15L452,367.74l12.27-7.18Z"></path><path class="cls-15" d="M549.52,367l-49.19,28.83-19.16-11.14,15.65-9.15a15.42,15.42,0,0,0,6.17-1.85,6.43,6.43,0,0,0,3.15-3.61l24.26-14.2Z"></path><polygon class="cls-11" points="554.62 333.05 542.96 339.88 526.78 330.46 538.43 323.64 554.62 333.05"></polygon><polygon class="cls-11" points="543.67 346.21 516.15 330.21 538.4 317.19 565.92 333.19 543.67 346.21"></polygon><path class="cls-16" d="M565.92,333.19l-22.25,13-27.52-16,22.25-13Zm-23,6.68,11.66-6.82-16.19-9.41-11.65,6.82L543,339.87"></path></g><path class="cls-16" d="M431.1,341.26l26.67,15.5L445.49,364,393.13,333.5l21-12.27,17.64,10.26c-.23.11-.46.24-.68.36C426.63,334.44,426.65,338.67,431.1,341.26Z"></path><g class="cls-2"><path class="cls-10" d="M494.06,270a43.17,43.17,0,0,1,6.06-10.28,35.69,35.69,0,0,1,9.54-8.43,23.09,23.09,0,0,1,2.78-1.37c4.24-1.71,7.68-1.46,10.25,0l4.88,2.83c-2.57-1.49-6-1.73-10.25,0a21.69,21.69,0,0,0-2.78,1.37,35.22,35.22,0,0,0-9.54,8.43,42.78,42.78,0,0,0-6.06,10.28A32.51,32.51,0,0,0,496.2,285a18.16,18.16,0,0,0,.74,5.63,19.66,19.66,0,0,0,1.85,3.7,36.83,36.83,0,0,0,4.5,6c3.58,4.13,7,8.45,9.32,14.72a1.15,1.15,0,0,0,.49.63l-4.88-2.84a1.17,1.17,0,0,1-.49-.62c-2.33-6.28-5.74-10.6-9.32-14.73a36.83,36.83,0,0,1-4.5-6,19.66,19.66,0,0,1-1.85-3.7,18.11,18.11,0,0,1-.74-5.63A32.51,32.51,0,0,1,494.06,270Z"></path><path class="cls-19" d="M498.94,272.81A42.78,42.78,0,0,1,505,262.53a35.32,35.32,0,0,1,9.53-8.43,22.47,22.47,0,0,1,2.79-1.37c5.81-2.34,10.13-1,12.73,2.16,1.57,1.93,2.67,4.76,2.76,9a32.23,32.23,0,0,1-2.57,12.26c-.74,1.91-1.4,3.78-2.16,5.65-2.29,5.57-4.77,11-6.91,16.66a138.12,138.12,0,0,0-4.61,14.27,4.56,4.56,0,0,1-2,2.77c-.82.47-1.64.41-2-.47-2.33-6.27-5.74-10.59-9.32-14.72a36.83,36.83,0,0,1-4.5-6,19.66,19.66,0,0,1-1.85-3.7,18.16,18.16,0,0,1-.74-5.63A32.51,32.51,0,0,1,498.94,272.81Zm15.58,9.63a16.9,16.9,0,0,0,7.67-13.28c0-4.87-3.47-6.84-7.72-4.39A16.9,16.9,0,0,0,506.81,278c0,4.88,3.47,6.85,7.71,4.4"></path><path class="cls-6" d="M515,261.25c-5.75,3.32-10.4,11.36-10.38,18s4.69,9.28,10.44,6,10.41-11.37,10.39-18S520.72,257.92,515,261.25Z"></path></g><path class="cls-20" d="M203.17,207.46a.49.49,0,0,1-.4-.21l-3-4.05a6.94,6.94,0,0,1-1.36-4.14v-8.31a7,7,0,0,1,5.29-6.79l4.47-1.12a.5.5,0,0,1,.61.36.49.49,0,0,1-.36.6L204,184.93a6,6,0,0,0-4.54,5.82v8.31a6,6,0,0,0,1.17,3.55l3,4a.51.51,0,0,1-.11.7A.49.49,0,0,1,203.17,207.46Z"></path><path class="cls-21" d="M200.75,201.37,198.34,200a4.63,4.63,0,0,1-1.93-3.68V189c0-1.42.87-2.07,1.93-1.46l2.41,1.39a4.64,4.64,0,0,1,1.93,3.69v7.28C202.68,201.33,201.81,202,200.75,201.37Z"></path><path class="cls-22" d="M200.75,189l-2.41-1.39a1.14,1.14,0,0,0-1.51.12,1.46,1.46,0,0,1,.84.21l2.41,1.39A4.67,4.67,0,0,1,202,193v7.28a2,2,0,0,1-.42,1.34c.64-.05,1.09-.66,1.09-1.67v-7.28A4.64,4.64,0,0,0,200.75,189Z"></path><path class="cls-23" d="M247.23,303.25l-64-36.81c-5.5-3.18-4.81-8.72,1.54-12.39L309.6,180.72l124.86-73.33c6.35-3.66,16-4.06,21.45-.89l64,36.82c5.5,3.17,4.81,8.72-1.54,12.38L393.53,229,268.68,302.36C262.33,306,252.72,306.43,247.23,303.25Z"></path><path class="cls-24" d="M518.89,143.89a7.86,7.86,0,0,1,2.44,2.1,4.76,4.76,0,0,1,.48,5c-.61,1.66-2.62,3.59-5,4.94l-123.78,72.7L269.26,301.41a24.22,24.22,0,0,1-6.17,2.44,25.15,25.15,0,0,1-10.62.35,24.88,24.88,0,0,1-4.44-1.54c-.08,0-2.53-1.41-2.6-1.45l-60.9-35a8,8,0,0,1-2.45-2.09,4.8,4.8,0,0,1-.48-5.05c.62-1.66,2.62-3.59,5-4.94L310.35,181.4l123.81-72.72a23.86,23.86,0,0,1,6.17-2.44,25.15,25.15,0,0,1,10.62-.36,23.76,23.76,0,0,1,4.43,1.55c.09,0,2.54,1.41,2.6,1.45Z"></path><path class="cls-25" d="M517.85,144.47a7.26,7.26,0,0,1,2.38,2.11,4.46,4.46,0,0,1,.11,4.9c-.55,1.49-2.92,3.56-5,4.78L392.61,228.34,269.84,300.45a26.19,26.19,0,0,1-6.08,2.51,24.63,24.63,0,0,1-10.5.55,23.86,23.86,0,0,1-4.42-1.44c-.17-.06-2.46-1.33-2.59-1.41L185.86,266a7.3,7.3,0,0,1-2.39-2.11,4.49,4.49,0,0,1-.11-4.91c.56-1.49,2.92-3.56,5-4.77l122.7-72.08L433.86,110a26.37,26.37,0,0,1,6.08-2.51,24.63,24.63,0,0,1,10.5-.55,23.62,23.62,0,0,1,4.42,1.44c.17.06,2.46,1.33,2.6,1.41Z"></path><path class="cls-26" d="M516.8,145a6.48,6.48,0,0,1,2.32,2.12,4.25,4.25,0,0,1-.25,4.77c-.5,1.32-3.22,3.53-5.09,4.61L392.15,228l-121.72,71.5a28.88,28.88,0,0,1-6,2.58,24.23,24.23,0,0,1-10.38.75,22.8,22.8,0,0,1-4.41-1.34c-.26-.09-2.39-1.25-2.59-1.36l-59.88-34.41a6.56,6.56,0,0,1-2.32-2.12,4.27,4.27,0,0,1,.26-4.77c.49-1.32,3.22-3.53,5.09-4.61l121.63-71.45,121.72-71.5a28.88,28.88,0,0,1,6-2.58,24.22,24.22,0,0,1,10.38-.75,23,23,0,0,1,4.41,1.34c.25.09,2.39,1.25,2.59,1.36Z"></path><path class="cls-27" d="M515.76,145.62a6,6,0,0,1,2.26,2.12,4.09,4.09,0,0,1-.63,4.63c-.43,1.16-3.51,3.5-5.15,4.45L391.69,227.64,271,298.54a32,32,0,0,1-5.9,2.64,23.6,23.6,0,0,1-10.25.94,21.22,21.22,0,0,1-4.4-1.23c-.34-.12-2.32-1.17-2.59-1.32l-59.36-34.11a5.85,5.85,0,0,1-2.25-2.12,4.08,4.08,0,0,1,.62-4.63c.43-1.16,3.51-3.5,5.15-4.45l120.56-70.82,120.67-70.9a32.72,32.72,0,0,1,5.9-2.64,23.63,23.63,0,0,1,10.26-.94,21.3,21.3,0,0,1,4.39,1.23c.35.12,2.33,1.17,2.59,1.32Z"></path><path class="cls-28" d="M514.72,146.2a5.42,5.42,0,0,1,2.19,2.13,4,4,0,0,1-1,4.49c-.37,1-3.81,3.47-5.22,4.28L391.23,227.3,271.59,297.58a36.7,36.7,0,0,1-5.81,2.71,23.11,23.11,0,0,1-10.13,1.14,20.46,20.46,0,0,1-4.38-1.13c-.43-.15-2.26-1.08-2.59-1.28l-58.84-33.8a5.48,5.48,0,0,1-2.19-2.13c-.6-1.28-.45-2.89,1-4.49.37-1,3.81-3.47,5.21-4.28l119.48-70.2L433,113.83a36.61,36.61,0,0,1,5.81-2.7A23,23,0,0,1,448.91,110a21.24,21.24,0,0,1,4.38,1.13c.43.15,2.25,1.09,2.58,1.28Z"></path><path class="cls-29" d="M513.67,146.77a5,5,0,0,1,2.13,2.14c.48,1.21.24,2.79-1.35,4.35-.31.83-4.11,3.44-5.28,4.12L390.76,227,272.18,296.63a43.76,43.76,0,0,1-5.72,2.77,22.62,22.62,0,0,1-10,1.34,21.31,21.31,0,0,1-4.38-1,25.55,25.55,0,0,1-2.57-1.23L191.17,265a5,5,0,0,1-2.13-2.14c-.48-1.21-.24-2.79,1.35-4.35.31-.83,4.11-3.44,5.28-4.12L314.08,184.8l118.58-69.68a43.76,43.76,0,0,1,5.72-2.77,22.52,22.52,0,0,1,10-1.34,20,20,0,0,1,4.37,1,26.84,26.84,0,0,1,2.58,1.23Z"></path><path class="cls-30" d="M512.63,147.35a4.49,4.49,0,0,1,2.07,2.15c.37,1.13,0,2.68-1.73,4.2-.24.67-4.4,3.41-5.34,4L390.3,226.6,272.76,295.67a54.9,54.9,0,0,1-5.63,2.84,21.94,21.94,0,0,1-9.89,1.53,20,20,0,0,1-4.36-.92,20.36,20.36,0,0,1-2.57-1.19l-57.81-33.2a4.49,4.49,0,0,1-2.07-2.15c-.37-1.13,0-2.69,1.72-4.2.25-.67,4.41-3.42,5.35-4l117.32-68.94,117.54-69.07a55.94,55.94,0,0,1,5.63-2.84,21.87,21.87,0,0,1,9.9-1.53,18.79,18.79,0,0,1,4.35.92,19.87,19.87,0,0,1,2.58,1.19Z"></path><path class="cls-31" d="M511.59,147.92a4.16,4.16,0,0,1,2,2.16c.27,1.06-.19,2.59-2.09,4.07-.18.49-4.71,3.38-5.41,3.78L389.84,226.25,273.35,294.72c-.51.29-4.93,2.76-5.54,2.9a21.41,21.41,0,0,1-9.77,1.73,19.32,19.32,0,0,1-4.35-.82,17.92,17.92,0,0,1-2.57-1.14l-57.3-32.9a4.16,4.16,0,0,1-2-2.16c-.27-1.05.19-2.59,2.09-4.07.19-.49,4.71-3.38,5.41-3.78l116.25-68.32,116.5-68.46c.5-.3,4.92-2.77,5.53-2.91a21.45,21.45,0,0,1,9.78-1.73,19.34,19.34,0,0,1,4.34.82,16.46,16.46,0,0,1,2.57,1.15Z"></path><path class="cls-32" d="M510.55,148.5a3.81,3.81,0,0,1,1.94,2.16c.17,1-.41,2.49-2.46,3.93a60.54,60.54,0,0,1-5.48,3.62l-115.17,67.7L273.93,293.76c-.34.2-5,2.87-5.45,3a20.7,20.7,0,0,1-9.65,1.93,18.82,18.82,0,0,1-4.33-.72,14.82,14.82,0,0,1-2.57-1.1l-56.78-32.59a3.8,3.8,0,0,1-1.94-2.17c-.17-1,.41-2.49,2.46-3.93a59,59,0,0,1,5.47-3.62l115.18-67.69L431.77,119c.34-.19,5-2.87,5.44-3a20.62,20.62,0,0,1,9.66-1.93,18.4,18.4,0,0,1,4.33.71,14.71,14.71,0,0,1,2.56,1.1Z"></path><path class="cls-33" d="M509.5,149.07c.72.42,1.79,1.21,1.88,2.18s-.62,2.38-2.83,3.79c-.06.16-5.3,3.32-5.53,3.45l-114.1,67.07L274.51,292.8c-.17.1-5.15,3-5.35,3a20,20,0,0,1-9.53,2.12,17.86,17.86,0,0,1-4.32-.61,11.8,11.8,0,0,1-2.57-1.06L196.48,264c-.72-.41-1.79-1.21-1.88-2.17s.62-2.39,2.83-3.79c.06-.17,5.3-3.32,5.53-3.46l114.1-67.06,114.41-67.25c.17-.1,5.15-3,5.35-3a20.06,20.06,0,0,1,9.54-2.13,18,18,0,0,1,4.32.62,12.45,12.45,0,0,1,2.56,1Z"></path><path class="cls-34" d="M260.42,297.27a14,14,0,0,1-6.86-1.52l-55.75-32c-.69-.4-1.82-1.2-1.82-2.19,0-.83.84-2.28,3.19-3.64L317.81,188.2l118.62-69.74a19.46,19.46,0,0,1,9.42-2.32,14.1,14.1,0,0,1,6.86,1.52l55.75,32c.68.4,1.82,1.2,1.82,2.18,0,.83-.84,2.29-3.2,3.65L388.46,225.21,269.83,294.94A19.35,19.35,0,0,1,260.42,297.27Z"></path><path class="cls-35" d="M470.56,152.36c0,4.35,1.5,7.43,3.94,8.92l7.78,4.5c2.54,1.42.91-1.8,4.77-4,7.75-4.48,14-15.33,14-24.23,0-4.4,4.07-4.43,1.58-5.9l-8.26-4.58c-2.53-1.37-6-1.11-9.81,1.09C476.85,132.62,470.56,143.46,470.56,152.36Z"></path><ellipse class="cls-36" cx="492.74" cy="148.87" rx="19.8" ry="11.43" transform="matrix(0.5, -0.86, 0.86, 0.5, 115.54, 499.12)"></ellipse><path class="cls-37" d="M492.06,132.42c3.72-2.15,7.1-2.44,9.61-1.18-2.34-.66-5.25-.17-8.39,1.65-7.76,4.48-14,15.32-14,24.22,0,4.64,1.71,7.83,4.44,9.19-3.43-1-5.65-4.37-5.65-9.66C478,147.74,484.31,136.9,492.06,132.42Z"></path><path class="cls-38" d="M492.85,139.16c-5,2.89-9.08,9.91-9.08,15.65s4.07,8.07,9.08,5.18,9.08-9.92,9.08-15.66S497.85,136.27,492.85,139.16Z"></path><path class="cls-39" d="M489.62,157.91c5-2.89,9.08-9.91,9.08-15.65a7.93,7.93,0,0,0-1.07-4.29c2.57.36,4.3,2.63,4.3,6.36,0,5.74-4.08,12.77-9.08,15.66-3.46,2-6.48,1.5-8-.9A7.63,7.63,0,0,0,489.62,157.91Z"></path><path class="cls-40" d="M486.56,154c0,3.55,2.5,5,5.59,3.19a12.31,12.31,0,0,0,5.6-9.65c0-3.55-2.5-5-5.6-3.2A12.34,12.34,0,0,0,486.56,154Z"></path><path class="cls-41" d="M487,152c0,3,2.12,4.22,4.74,2.71a10.45,10.45,0,0,0,4.74-8.18c0-3-2.12-4.22-4.74-2.7A10.43,10.43,0,0,0,487,152Z"></path><path class="cls-42" d="M488.3,152.87c0,3,2.12,4.21,4.74,2.7a10.43,10.43,0,0,0,4.74-8.18c0-3-2.12-4.21-4.74-2.7A10.43,10.43,0,0,0,488.3,152.87Z"></path><path class="cls-43" d="M440.43,170.11c0,4.35,1.5,7.43,3.94,8.92l7.78,4.5c2.54,1.42.92-1.8,4.77-4C464.68,175,471,164.18,471,155.28c0-4.4,4.07-4.43,1.57-5.9l-8.26-4.58c-2.53-1.37-6-1.11-9.8,1.09C446.72,150.37,440.43,161.21,440.43,170.11Z"></path><ellipse class="cls-44" cx="462.61" cy="166.62" rx="19.8" ry="11.43" transform="matrix(0.5, -0.86, 0.86, 0.5, 85.29, 481.9)"></ellipse><path class="cls-45" d="M461.94,150.17c3.72-2.15,7.09-2.44,9.61-1.18-2.34-.66-5.25-.17-8.4,1.65-7.75,4.48-14,15.32-14,24.22,0,4.64,1.7,7.83,4.43,9.19-3.43-1-5.65-4.37-5.65-9.66C447.89,165.49,454.18,154.65,461.94,150.17Z"></path><path class="cls-46" d="M462.72,156.91c-5,2.89-9.07,9.91-9.07,15.65s4.07,8.07,9.07,5.18,9.08-9.92,9.08-15.66S467.73,154,462.72,156.91Z"></path><path class="cls-47" d="M459.5,175.66c5-2.89,9.07-9.91,9.07-15.65a7.93,7.93,0,0,0-1.07-4.29c2.58.36,4.3,2.63,4.3,6.36,0,5.74-4.07,12.77-9.08,15.66-3.46,2-6.47,1.5-8-.9A7.64,7.64,0,0,0,459.5,175.66Z"></path><path class="cls-48" d="M456.43,171.76c0,3.55,2.51,5,5.6,3.19a12.34,12.34,0,0,0,5.6-9.65c0-3.55-2.51-5-5.6-3.2A12.35,12.35,0,0,0,456.43,171.76Z"></path><path class="cls-49" d="M456.88,169.72c0,3,2.13,4.22,4.74,2.71a10.46,10.46,0,0,0,4.75-8.18c0-3-2.13-4.22-4.75-2.7A10.46,10.46,0,0,0,456.88,169.72Z"></path><path class="cls-50" d="M458.17,170.62c0,3,2.13,4.21,4.75,2.7a10.46,10.46,0,0,0,4.74-8.18c0-3-2.13-4.21-4.74-2.7A10.45,10.45,0,0,0,458.17,170.62Z"></path><polygon class="cls-51" points="387.69 190.77 387.69 204.18 432.91 177.94 432.91 164.58 387.69 190.77"></polygon><polygon class="cls-52" points="387.69 190.77 387.69 204.18 374.98 196.95 374.98 183.51 387.69 190.77"></polygon><polygon class="cls-53" points="374.98 183.51 387.69 190.77 432.91 164.58 420.19 157.33 374.98 183.51"></polygon><polygon class="cls-54" points="516.56 114.96 516.56 132.03 518.23 130.7 518.23 113.67 516.56 114.96"></polygon><polygon class="cls-55" points="516.56 114.96 516.56 132.03 475.87 109.17 475.87 92.07 516.56 114.96"></polygon><polygon class="cls-56" points="475.87 92.07 516.56 114.96 518.23 113.67 477.53 90.79 475.87 92.07"></polygon><polygon class="cls-57" points="507.62 119.32 507.62 144.76 503.22 142.3 503.22 116.7 507.62 119.32"></polygon><polygon class="cls-58" points="441.4 157.52 441.4 182.96 445.93 180.34 445.93 160.11 507.58 124.51 507.58 144.75 512.12 142.13 512.12 116.69 441.4 157.52"></polygon><polygon class="cls-59" points="441.37 157.57 441.37 183.01 436.97 180.55 436.97 154.95 441.37 157.57"></polygon><polygon class="cls-60" points="395.14 201.96 397.44 203.32 434.98 181.69 432.65 180.37 395.14 201.96"></polygon><polygon class="cls-61" points="435.03 167.95 435.03 181.71 432.65 180.38 432.65 166.53 435.03 167.95"></polygon><path class="cls-62" d="M394,189.74v19.57l44.41-25.75V164.15Zm41-8.17-37.49,21.74V191.73L435,170.14Z"></path><polygon class="cls-63" points="394.05 189.74 394.05 209.31 391.14 207.84 391.14 188.14 394.05 189.74"></polygon><polygon class="cls-64" points="391.14 188.14 394.05 189.74 438.44 164.15 435.5 162.6 391.14 188.14"></polygon><path class="cls-65" d="M351.68,221.74c0,4.35,1.5,7.42,3.94,8.92l7.78,4.5c2.54,1.42.92-1.8,4.77-4,7.76-4.47,14.05-15.32,14.05-24.22,0-4.4,4.07-4.44,1.57-5.91l-8.26-4.57c-2.53-1.37-6-1.12-9.8,1.08C358,202,351.68,212.84,351.68,221.74Z"></path><ellipse class="cls-66" cx="373.86" cy="218.25" rx="19.8" ry="11.43" transform="translate(-3.23 430.86) rotate(-59.69)"></ellipse><path class="cls-67" d="M373.19,201.79c3.72-2.14,7.09-2.43,9.61-1.18-2.34-.65-5.25-.16-8.4,1.65-7.75,4.48-14,15.33-14,24.23,0,4.63,1.7,7.82,4.43,9.19-3.43-1-5.65-4.37-5.65-9.66C359.14,217.12,365.43,206.27,373.19,201.79Z"></path><path class="cls-68" d="M374,208.53c-5,2.89-9.07,9.91-9.07,15.66s4.07,8.06,9.07,5.17,9.08-9.91,9.08-15.65S379,205.64,374,208.53Z"></path><path class="cls-69" d="M370.75,227.29c5-2.89,9.07-9.92,9.07-15.66a7.92,7.92,0,0,0-1.07-4.28c2.58.35,4.3,2.63,4.3,6.36,0,5.74-4.07,12.76-9.08,15.65-3.46,2-6.47,1.5-8-.89A7.64,7.64,0,0,0,370.75,227.29Z"></path><path class="cls-70" d="M367.68,223.39c0,3.55,2.51,5,5.6,3.19a12.35,12.35,0,0,0,5.6-9.66c0-3.55-2.51-5-5.6-3.19A12.34,12.34,0,0,0,367.68,223.39Z"></path><path class="cls-71" d="M368.13,221.35c0,3,2.13,4.22,4.74,2.7a10.45,10.45,0,0,0,4.75-8.18c0-3-2.13-4.21-4.75-2.7A10.46,10.46,0,0,0,368.13,221.35Z"></path><path class="cls-72" d="M369.42,222.24c0,3,2.13,4.22,4.75,2.71a10.48,10.48,0,0,0,4.74-8.18c0-3-2.13-4.22-4.74-2.71A10.48,10.48,0,0,0,369.42,222.24Z"></path><polygon class="cls-73" points="300.62 244.05 300.62 263.63 359.21 229.8 359.21 210.39 300.62 244.05"></polygon><polygon class="cls-74" points="342.52 220.11 342.52 238.98 343.46 238.48 343.46 219.57 342.52 220.11"></polygon><polygon class="cls-75" points="343.46 219.59 343.46 238.46 344.02 238.17 344.02 219.26 343.46 219.59"></polygon><path class="cls-76" d="M300.62,249.07v13.06l39.07-22.56h0a7.49,7.49,0,0,0-11.22-6.5Z"></path><path class="cls-77" d="M328.46,233.07l-27.84,16v1.75l27.84-16a7.49,7.49,0,0,1,11,4.86l.2-.11h0A7.5,7.5,0,0,0,328.46,233.07Z"></path><polygon class="cls-78" points="300.63 244.05 300.63 263.63 254.35 237.3 254.35 217.6 300.63 244.05"></polygon><polygon class="cls-79" points="254.35 217.6 300.63 244.05 359.21 210.39 312.9 183.98 254.35 217.6"></polygon><polygon class="cls-10" points="308.64 166.15 308.64 237.18 519.56 114.53 519.56 43.71 308.64 166.15"></polygon><polygon class="cls-80" points="310.64 167.31 310.64 169.08 516.31 49.68 516.31 114.1 517.56 113.38 517.56 47.18 310.64 167.31"></polygon><polygon class="cls-81" points="308.64 233 308.64 236.68 519.56 114.03 519.56 110.56 308.64 233"></polygon><polygon class="cls-10" points="308.67 166.15 308.67 237.18 250.81 204.27 250.81 133.09 308.67 166.15"></polygon><polygon class="cls-9" points="250.81 133.09 308.67 166.15 519.56 43.71 461.67 10.69 250.81 133.09"></polygon><path class="cls-82" d="M250.9,154.69l-38,22.16a19.65,19.65,0,0,0-9.35,12.28l-5.35,21.09a78.43,78.43,0,0,0-2.41,19.29V254.2L250,284.91v-22a78.3,78.3,0,0,1,3.65-23.63l6.92-21.9a19.66,19.66,0,0,1,9.05-11.18l35.56-20.75Z"></path><path class="cls-83" d="M250,262.84v22.07l29-16.67,2.23-12.81,23.92-14.24V185.48l-35.7,20.82a19.67,19.67,0,0,0-9.07,11.24l-6.84,21.86A78.31,78.31,0,0,0,250,262.84Z"></path><path class="cls-84" d="M250.73,262.72a78.33,78.33,0,0,1,3.58-23.45l6.84-21.86a19.7,19.7,0,0,1,9.07-11.24L304.8,186v-.9l-35.7,20.81A19.7,19.7,0,0,0,260,217.16L253.19,239a78.34,78.34,0,0,0-3.59,23.45v22.06l1.13-.64Z"></path><path class="cls-85" d="M263.7,218.57l-6.84,21.88a1.73,1.73,0,0,0,2.52,2l21.49-12.53a4.63,4.63,0,0,0,2.3-4V208a1.74,1.74,0,0,0-2.61-1.5l-13.34,7.78a7.76,7.76,0,0,0-3.51,4.29Z"></path><path class="cls-86" d="M240.75,245.67v8.11A11.22,11.22,0,0,1,224,263.52l-7.77-4.44a27.35,27.35,0,0,1-13.79-23.75v-11.7Z"></path><path class="cls-87" d="M229.52,262a8.13,8.13,0,0,1-4.07-1.1l-7.77-4.44a24.4,24.4,0,0,1-12.26-21.14v-6.51l32.33,18.59v6.37A8.25,8.25,0,0,1,229.52,262Z"></path><path class="cls-88" d="M209.44,248.71l22.47,12.92a9.48,9.48,0,0,0,1.58-.67l-25.43-14.62A26.61,26.61,0,0,0,209.44,248.71Zm-3.1-6.78,29.58,17a8.16,8.16,0,0,0,.79-1.13l-30.82-17.72C206,240.71,206.17,241.32,206.34,241.93Zm-.92-6.6c0,.37,0,.73,0,1.09l32.21,18.52a7.36,7.36,0,0,0,.09-1.16v-.37l-32.33-18.59Zm0-5.51v1.58L237.75,250v-1.58Z"></path><g class="cls-89"><path class="cls-90" d="M208.46,247.06,233,261.19l.47-.23-25.43-14.62C208.19,246.58,208.32,246.82,208.46,247.06Z"></path><path class="cls-91" d="M206,240.67l30.43,17.5c.08-.13.18-.23.25-.36l-30.82-17.72C205.93,240.28,206,240.48,206,240.67Z"></path><path class="cls-92" d="M205.42,235.32l32.32,18.58s0-.08,0-.12v-.37l-32.33-18.59Z"></path><polygon class="cls-93" points="205.41 229.82 205.41 230.32 237.75 248.91 237.75 248.41 205.41 229.82"></polygon></g><path class="cls-94" d="M248.1,242.72a3.14,3.14,0,0,1-1.58-.42l-44-25a5.4,5.4,0,0,1-2.56-6l5.51-21.71a17.19,17.19,0,0,1,1.17-3.24,2,2,0,0,1,1.76-1.13,1.86,1.86,0,0,1,1,.26L257.28,213a3.15,3.15,0,0,1,1.39,3.72l-7.5,23.73a3.2,3.2,0,0,1-3.07,2.25Z"></path><path class="cls-95" d="M199.94,211.33l5.51-21.71a17.19,17.19,0,0,1,1.17-3.24,2,2,0,0,1,1.76-1.13,1.86,1.86,0,0,1,1,.26L257.28,213C258.55,213.75,199.35,213.67,199.94,211.33Z"></path><path class="cls-96" d="M249.12,240.22a3.15,3.15,0,0,1-1.6-.43l-44.66-25.32a5.48,5.48,0,0,1-2.7-4l-.22.89a5.4,5.4,0,0,0,2.56,6l44,25a3.14,3.14,0,0,0,1.58.42,3.2,3.2,0,0,0,3.07-2.25l.45-1.42A3.24,3.24,0,0,1,249.12,240.22Z"></path><path class="cls-97" d="M226.58,216.71,214.13,214a.53.53,0,0,0-.46-.11h0l-7.33-1.6a.5.5,0,0,0-.21,1l7.32,1.59,2.39,8.23a.5.5,0,0,0,.48.36l.14,0a.5.5,0,0,0,.34-.62l-2.24-7.7,11.82,2.58h.11a.5.5,0,0,0,.1-1Z"></path><path class="cls-98" d="M246.25,227.71,233.8,225a.53.53,0,0,0-.46-.11h0l-7.33-1.6a.5.5,0,0,0-.21,1l7.31,1.59,2.4,8.23a.49.49,0,0,0,.48.36l.14,0a.51.51,0,0,0,.34-.62l-2.24-7.7L246,228.69h.11a.5.5,0,0,0,.1-1Z"></path><g class="cls-99"><path class="cls-100" d="M297.1,198.07a.74.74,0,0,1,.74.73v18A3.64,3.64,0,0,1,296,219.9l-6,3.49a1.19,1.19,0,0,1-.61.17,1.22,1.22,0,0,1-1.21-1.22v-17a3.81,3.81,0,0,1,1.89-3.29l6.61-3.86a.71.71,0,0,1,.37-.1Zm0-1a1.66,1.66,0,0,0-.87.24l-6.61,3.85a4.83,4.83,0,0,0-2.39,4.16v17a2.2,2.2,0,0,0,3.33,1.91l6-3.49a4.64,4.64,0,0,0,2.3-4v-18a1.73,1.73,0,0,0-1.74-1.73Z"></path></g><path class="cls-101" d="M287.3,228.74l-3.14,1.83a2.31,2.31,0,0,0-1.14,2v.15a1.05,1.05,0,0,0,1.58.91l2.85-1.66a2.2,2.2,0,0,0,1.09-1.91v-.59A.82.82,0,0,0,287.3,228.74Z"></path><g class="cls-99"><path class="cls-100" d="M287.45,232l-2.85,1.66a1.05,1.05,0,0,1-1.57-.83s0,.06,0,.09v.54a1.05,1.05,0,0,0,1.58.91l2.85-1.66a2.2,2.2,0,0,0,1.09-1.91V230A2.2,2.2,0,0,1,287.45,232Z"></path></g><polygon class="cls-102" points="281.59 239.63 305.17 241.19 281.31 255.28 281.59 239.63"></polygon><polygon class="cls-103" points="297.99 251.67 297.99 262.41 289.81 257.82 290.35 247.11 297.99 251.67"></polygon><path class="cls-104" d="M261.55,273.93c0,4.38,1.51,7.47,4,9l7.48,4.34c2.55,1.43.92-1.81,4.8-4.05,7.8-4.5,14.12-15.41,14.12-24.36,0-4.43,4.1-4.47,1.59-5.95l-8-4.4c-2.55-1.38-6-1.13-9.86,1.09C267.88,254.07,261.55,265,261.55,273.93Z"></path><ellipse class="cls-105" cx="283.51" cy="270.23" rx="19.92" ry="11.5" transform="translate(-92.86 378.6) rotate(-59.69)"></ellipse><ellipse class="cls-106" cx="283.51" cy="270.23" rx="14.19" ry="8.19" transform="translate(-92.86 378.6) rotate(-59.69)"></ellipse><path class="cls-107" d="M273.45,276a8.67,8.67,0,0,0,1.27,4.89c1.72,1.24,4.24,1.2,7-.42,5.19-3,9.4-10.25,9.4-16.2,0-4.3-2.2-6.75-5.37-6.65a11.54,11.54,0,0,0-2.28,1C278,261.89,273.45,269.66,273.45,276Z"></path><path class="cls-100" d="M289.26,257.43c1.8,1.05,2.91,3.27,2.91,6.44,0,6.38-4.51,14.15-10.07,17.36a8.17,8.17,0,0,1-5.75,1.25c1.82,1.06,4.36.92,7.16-.7,5.56-3.21,10.07-11,10.07-17.36C293.58,260.49,291.87,258,289.26,257.43Z"></path><path class="cls-108" d="M279.68,271.8c0,1.67,1.18,2.34,2.63,1.5a5.78,5.78,0,0,0,2.63-4.54c0-1.67-1.17-2.34-2.63-1.5A5.81,5.81,0,0,0,279.68,271.8Z"></path><path class="cls-109" d="M282.83,253.68c3.74-2.16,7.14-2.45,9.67-1.19-2.36-.66-5.28-.16-8.45,1.66-7.8,4.51-14.12,15.42-14.12,24.37,0,4.66,1.71,7.87,4.46,9.24-3.45-1-5.68-4.4-5.68-9.72C268.71,269.09,275,258.18,282.83,253.68Z"></path><path class="cls-110" d="M282.08,260.83a2.9,2.9,0,0,0-1.32,2.27c0,.83.59,1.17,1.32.75a2.92,2.92,0,0,0,1.31-2.27C283.39,260.75,282.8,260.41,282.08,260.83Zm0,15.4a2.9,2.9,0,0,0-1.32,2.27c0,.84.59,1.17,1.32.75a2.9,2.9,0,0,0,1.31-2.27C283.39,276.15,282.8,275.81,282.08,276.23Zm3.81-12.77c.52.29,1.35-.19,1.86-1.07s.52-1.85,0-2.14-1.34.19-1.86,1.08S285.38,263.17,285.89,263.46Zm-7.63,13.16c-.51-.29-1.35.19-1.86,1.08s-.51,1.84,0,2.13,1.35-.19,1.86-1.07S278.77,276.92,278.26,276.62Zm10.53-12a2.89,2.89,0,0,0-1.32,2.27c0,.83.59,1.16,1.32.75a2.92,2.92,0,0,0,1.31-2.27C290.1,264.57,289.51,264.24,288.79,264.66Zm-13.43,7.75a2.9,2.9,0,0,0-1.31,2.27c0,.83.59,1.16,1.31.75a2.9,2.9,0,0,0,1.32-2.27C276.68,272.32,276.09,272,275.36,272.41Zm12.39-1.27c-.51-.29-1.34.19-1.86,1.08s-.51,1.84,0,2.13,1.35-.19,1.86-1.07S288.27,271.44,287.75,271.14Zm-9.49-5.41c-.51-.29-1.35.19-1.86,1.08s-.51,1.84,0,2.13,1.35-.19,1.86-1.07S278.77,266,278.26,265.73Z"></path><path class="cls-111" d="M278,271.8a2.71,2.71,0,0,0,1.09,2.47l1.64,1c.7.39.25-.5,1.32-1.12a8.58,8.58,0,0,0,3.89-6.71c0-1.22,1.13-1.23.44-1.64l-1.77-1a2.78,2.78,0,0,0-2.72.3A8.58,8.58,0,0,0,278,271.8Z"></path><path class="cls-112" d="M279.75,272.82c0,2.46,1.74,3.46,3.89,2.22a8.59,8.59,0,0,0,3.89-6.72c0-2.46-1.74-3.46-3.89-2.22A8.58,8.58,0,0,0,279.75,272.82Z"></path><polygon class="cls-113" points="265.82 285.79 265.82 270.24 275.94 252.78 290.2 244.54 281.59 239.63 267.28 247.9 257.15 265.36 257.15 280.91 265.82 285.79"></polygon><polygon class="cls-114" points="265.82 270.24 275.94 252.78 267.28 247.9 257.15 265.36 265.82 270.24"></polygon><polygon class="cls-115" points="268.2 284.5 268.2 270.88 277.69 254.53 290.26 247.27 297.99 251.67 297.99 262.41 300.38 261.04 300.38 250.28 290.25 244.51 275.94 252.78 265.82 270.24 265.82 285.88 268.2 284.5"></polygon><g class="cls-89"><polygon class="cls-116" points="266.07 269.92 276.19 252.46 290.29 244.32 289.75 244.01 275.44 252.28 265.32 269.74 265.32 285.38 266.07 284.94 266.07 269.92"></polygon><polygon class="cls-117" points="298.24 261.48 298.24 251.36 290.51 246.95 290.3 247.07 297.49 251.17 297.49 261.91 298.24 261.48"></polygon></g><path class="cls-118" d="M191.67,249l54.27,32.2a8.62,8.62,0,0,0,8.54,0l10.15-5.68v9.23l-10.24,5.77a8.65,8.65,0,0,1-8.57,0L191.67,259.4Z"></path><path class="cls-119" d="M192.6,250.73l53.34,30.44a8.62,8.62,0,0,0,8.54,0l10.15-5.68-2.78-1.59-7.35,4.15a8.62,8.62,0,0,1-8.61,0l-50.1-28.9,0-3.69-3.26,2A1.89,1.89,0,0,0,192.6,250.73Z"></path><g class="cls-89"><polygon class="cls-120" points="195.72 248.53 195.79 248.57 195.81 245.47 195.74 245.51 195.72 248.53"></polygon><path class="cls-121" d="M264,275.16l-9.62,5.4a8.64,8.64,0,0,1-8.54,0l-53.34-30.44a1.89,1.89,0,0,1-.88-1.12,1.85,1.85,0,0,0,.94,1.74l53.34,30.44a8.62,8.62,0,0,0,8.54,0l10.15-5.68Z"></path></g><path class="cls-122" d="M265,242.49a.52.52,0,0,1-.43-.24.51.51,0,0,1,.17-.69l3.39-2a6,6,0,0,0,2.9-5.14V221.16a6,6,0,0,0-2.67-5L265,214a.5.5,0,0,1,.56-.84l3.33,2.22a7,7,0,0,1,3.11,5.83v13.22a7,7,0,0,1-3.38,6l-3.39,2A.48.48,0,0,1,265,242.49Z"></path><path class="cls-123" d="M273.66,235.12l-2.41-1.39a4.63,4.63,0,0,1-1.93-3.68v-7.28c0-1.42.87-2.07,1.93-1.46l2.41,1.39a4.61,4.61,0,0,1,1.93,3.69v7.28C275.59,235.08,274.73,235.74,273.66,235.12Z"></path><path class="cls-124" d="M273.66,222.7l-2.41-1.39a1.13,1.13,0,0,0-1.5.12,1.49,1.49,0,0,1,.84.21L273,223a4.67,4.67,0,0,1,1.93,3.69V234a1.92,1.92,0,0,1-.43,1.34c.65-.05,1.09-.66,1.09-1.67v-7.28A4.61,4.61,0,0,0,273.66,222.7Z"></path><path class="cls-125" d="M305.27,169,251.89,138.4l-20.13,12.09A28.31,28.31,0,0,0,217.7,175l.09-.06L271,205.23Z"></path><path class="cls-126" d="M271,205.18h0L305.31,185V168.92L285,180.73A28.29,28.29,0,0,0,271,205.18Z"></path><path class="cls-127" d="M285.42,180.85l19.26-11.22v-1.08l-20.26,11.8a28.3,28.3,0,0,0-14.06,24.46l1-.61A28.29,28.29,0,0,1,285.42,180.85Z"></path><g class="cls-2"><path class="cls-10" d="M369.68,46.21a42.78,42.78,0,0,1,6.06-10.28,35.52,35.52,0,0,1,9.54-8.43,21.18,21.18,0,0,1,2.79-1.37c4.23-1.71,7.67-1.46,10.24,0L403.19,29c-2.57-1.49-6-1.73-10.25,0a21.69,21.69,0,0,0-2.78,1.37,35.35,35.35,0,0,0-9.54,8.43A42.92,42.92,0,0,0,374.56,49a32.51,32.51,0,0,0-2.74,12.19,18,18,0,0,0,.74,5.62,20.06,20.06,0,0,0,1.85,3.71,37.26,37.26,0,0,0,4.5,6c3.58,4.13,7,8.44,9.32,14.72a1.2,1.2,0,0,0,.49.63l-4.88-2.84a1.22,1.22,0,0,1-.49-.62C381,82.2,377.61,77.88,374,73.75a37.41,37.41,0,0,1-4.5-6,19.66,19.66,0,0,1-1.85-3.7,18.16,18.16,0,0,1-.74-5.63A32.7,32.7,0,0,1,369.68,46.21Z"></path><path class="cls-19" d="M374.56,49a42.92,42.92,0,0,1,6.06-10.27,35.35,35.35,0,0,1,9.54-8.43A21.69,21.69,0,0,1,392.94,29c5.81-2.35,10.13-1,12.73,2.15,1.57,1.93,2.67,4.77,2.76,9a32.28,32.28,0,0,1-2.57,12.27c-.74,1.9-1.4,3.78-2.16,5.64-2.29,5.58-4.77,11.05-6.91,16.67A135.7,135.7,0,0,0,392.19,89a4.56,4.56,0,0,1-2,2.76c-.82.48-1.64.42-2-.46-2.33-6.28-5.74-10.59-9.32-14.72a37.26,37.26,0,0,1-4.5-6,20.06,20.06,0,0,1-1.85-3.71,18,18,0,0,1-.74-5.62A32.51,32.51,0,0,1,374.56,49Zm15.58,9.64a16.92,16.92,0,0,0,7.67-13.28c0-4.88-3.47-6.84-7.72-4.39a16.9,16.9,0,0,0-7.66,13.26c0,4.89,3.47,6.86,7.71,4.41"></path><path class="cls-6" d="M390.58,37.48c-5.75,3.32-10.4,11.37-10.38,18s4.7,9.29,10.45,6,10.4-11.37,10.38-18S396.34,34.16,390.58,37.48Z"></path></g><polyline class="cls-128" points="196.83 281.8 297.64 336.98 164.5 412.5 283.02 484.65 540.7 482.63 680 399.5 600.57 354.38 599.5 349.17 536 311.5"></polyline><circle class="cls-129" cx="533.95" cy="310.32" r="2.08"></circle><circle class="cls-129" cx="194.73" cy="279.92" r="4.82"></circle></g></g></svg>